<?xml version="1.0" standalone="no"?>
<!DOCTYPE svg PUBLIC "-//W3C//DTD SVG 20010904//EN"
 "http://www.w3.org/TR/2001/REC-SVG-20010904/DTD/svg10.dtd">
<svg version="1.0" xmlns="http://www.w3.org/2000/svg"
 width="659.000000pt" height="709.000000pt" viewBox="0 0 659.000000 709.000000"
 preserveAspectRatio="xMidYMid meet">

<g transform="translate(0.000000,709.000000) scale(0.100000,-0.100000)"
fill="#000000" stroke="none">
<path d="M2650 6205 l0 -875 260 0 260 0 0 875 0 875 -260 0 -260 0 0 -875z"/>
<path d="M3671 5914 c-137 -37 -289 -149 -359 -267 -43 -71 -78 -175 -87 -254
l-7 -63 44 0 c189 1 412 148 502 330 35 72 65 184 66 243 0 26 -2 27 -52 26
-29 0 -77 -7 -107 -15z"/>
<path d="M3377 5309 c-45 -11 -133 -54 -143 -71 -11 -18 81 -96 156 -132 61
-29 72 -31 180 -31 104 0 120 2 170 27 82 40 84 42 70 67 -20 38 -128 110
-197 131 -69 21 -168 25 -236 9z"/>
<path d="M1700 4390 l0 -880 260 0 260 0 0 880 0 880 -260 0 -260 0 0 -880z"/>
<path d="M2650 4390 l0 -880 260 0 260 0 0 880 0 880 -260 0 -260 0 0 -880z"/>
<path d="M4540 4390 l0 -880 260 0 260 0 0 880 0 880 -260 0 -260 0 0 -880z"/>
<path d="M17 3943 c-21 -5 -19 -19 14 -107 50 -136 166 -260 302 -325 98 -47
161 -61 270 -61 113 0 116 3 88 86 -64 194 -235 352 -432 399 -60 14 -201 19
-242 8z"/>
<path d="M6345 3760 c-117 -37 -222 -135 -264 -245 -23 -61 -20 -63 86 -64
165 -2 310 86 383 233 17 33 30 65 30 71 0 30 -147 33 -235 5z"/>
<path d="M760 2570 l0 -880 265 0 265 0 0 880 0 880 -265 0 -265 0 0 -880z"/>
<path d="M1700 2570 l0 -880 260 0 260 0 0 880 0 880 -260 0 -260 0 0 -880z"/>
<path d="M2650 2570 l0 -880 260 0 260 0 0 880 0 880 -260 0 -260 0 0 -880z"/>
<path d="M3590 2570 l0 -880 260 0 260 0 0 880 0 880 -260 0 -260 0 0 -880z"/>
<path d="M4540 2570 l0 -880 260 0 260 0 0 880 0 880 -260 0 -260 0 0 -880z"/>
<path d="M5490 2570 l0 -880 260 0 260 0 0 880 0 880 -260 0 -260 0 0 -880z"/>
<path d="M442 3389 c-104 -17 -229 -98 -275 -178 l-18 -31 48 -22 c41 -19 66
-23 163 -23 109 0 119 2 182 32 71 33 142 92 171 142 l18 30 -39 20 c-36 18
-146 42 -182 40 -8 -1 -39 -5 -68 -10z"/>
<path d="M5085 1481 c-58 -26 -142 -96 -161 -133 -12 -23 -15 -45 -10 -82 48
-387 70 -669 58 -746 -6 -42 -9 -45 -39 -48 -25 -3 -40 5 -73 34 -53 48 -83
101 -121 210 -52 155 -109 500 -109 664 0 27 -4 50 -9 50 -5 0 -17 -21 -27
-47 -14 -38 -18 -91 -22 -263 -4 -225 12 -633 29 -710 13 -60 50 -105 109
-135 64 -32 96 -31 151 3 56 37 146 132 164 175 34 81 64 300 105 767 12 129
22 244 23 255 3 26 -20 28 -68 6z"/>
<path d="M3743 1447 c-12 -17 -29 -48 -37 -69 l-16 -36 -87 -7 c-139 -10 -395
-35 -430 -41 -18 -4 -33 -10 -33 -14 0 -22 101 -78 188 -104 29 -8 119 -20
200 -26 81 -6 149 -16 153 -22 8 -13 24 -481 24 -710 0 -178 7 -204 42 -151
16 25 18 67 21 449 l3 423 137 -2 c130 -2 139 -1 177 23 57 35 114 88 132 123
13 27 13 31 -1 46 -15 14 -46 16 -227 15 l-210 0 7 68 c8 79 -6 90 -43 35z"/>
<path d="M5453 1448 c-57 -60 -67 -93 -65 -199 l3 -96 -71 -27 c-51 -20 -80
-39 -105 -68 -33 -39 -73 -123 -63 -133 2 -2 59 23 126 57 68 33 124 59 126
57 2 -2 6 -63 10 -134 l7 -130 -66 -39 c-36 -21 -87 -46 -113 -56 -37 -14 -48
-23 -50 -43 -6 -52 121 -126 198 -115 l30 5 0 -124 c0 -128 17 -203 46 -203
11 0 14 33 14 179 0 165 2 180 18 185 26 9 105 -21 313 -117 197 -91 239 -104
282 -88 59 23 165 146 144 167 -3 3 -31 0 -62 -7 -65 -14 -156 -4 -320 38 -55
14 -140 33 -189 42 l-88 17 40 26 c68 46 284 223 349 286 85 83 97 109 97 208
1 106 -12 124 -93 124 -82 0 -377 -48 -465 -76 -17 -6 -18 1 -11 145 5 92 4
151 -2 151 -5 0 -23 -15 -40 -32z m537 -246 c0 -11 -74 -80 -155 -144 -85 -68
-335 -238 -348 -238 -10 0 -2 233 8 250 7 11 226 84 345 114 98 26 150 32 150
18z"/>
<path d="M1816 1370 c-204 -132 -384 -401 -323 -484 11 -15 36 -18 200 -21
231 -5 257 -9 257 -40 0 -51 -43 -81 -178 -126 -307 -101 -562 -224 -562 -270
0 -44 149 -137 234 -146 40 -5 49 1 256 148 118 84 228 167 244 183 75 80 110
223 66 278 -19 24 -24 26 -177 32 -157 7 -263 21 -263 35 0 4 19 25 43 48 114
109 276 183 520 237 62 14 12 86 -99 140 -97 48 -125 46 -218 -14z"/>
<path d="M1057 1382 c-35 -39 -57 -106 -57 -180 0 -88 -25 -159 -145 -409
l-83 -172 -74 -3 -73 -3 2 -29 c1 -16 16 -47 34 -69 l32 -39 -37 -72 c-41 -82
-51 -121 -42 -171 10 -52 31 -43 49 22 9 32 32 93 52 136 l36 77 62 0 c34 0
86 3 116 7 l54 6 -7 -120 c-8 -144 -1 -169 69 -231 47 -41 112 -69 127 -54 4
4 2 97 -6 207 -7 110 -11 203 -9 208 2 4 20 7 39 7 19 0 47 6 62 14 38 20 96
82 88 95 -5 7 -44 11 -101 11 l-94 0 -5 43 c-3 23 -15 195 -26 381 -12 187
-23 343 -26 348 -8 13 -19 10 -37 -10z m-72 -709 l-6 -53 -75 0 c-41 0 -74 2
-74 3 0 2 31 69 69 148 38 79 73 155 77 169 11 31 18 -190 9 -267z"/>
<path d="M2917 1382 c-35 -39 -57 -106 -57 -180 0 -88 -25 -159 -145 -409
l-83 -172 -74 -3 -73 -3 2 -29 c1 -16 16 -47 34 -69 l32 -39 -37 -72 c-41 -82
-51 -121 -42 -171 10 -52 31 -43 49 22 9 32 32 93 52 136 l36 77 62 0 c34 0
86 3 116 7 l54 6 -7 -120 c-8 -144 -1 -169 69 -231 47 -41 112 -69 127 -54 4
4 2 97 -6 207 -7 110 -11 203 -9 208 2 4 20 7 39 7 19 0 47 6 62 14 38 20 96
82 88 95 -5 7 -44 11 -101 11 l-94 0 -5 43 c-3 23 -15 195 -26 381 -12 187
-23 343 -26 348 -8 13 -19 10 -37 -10z m-72 -709 l-6 -53 -75 0 c-41 0 -74 2
-74 3 0 2 31 69 69 148 38 79 73 155 77 169 11 31 18 -190 9 -267z"/>
<path d="M2251 1334 c-17 -14 -35 -42 -40 -62 -16 -63 -48 -507 -53 -744 l-3
-127 35 -37 c45 -47 118 -94 146 -94 19 0 24 7 30 47 12 83 -34 1006 -52 1035
-9 15 -32 8 -63 -18z"/>
<path d="M4408 1325 c-200 -83 -420 -295 -497 -480 -36 -84 -37 -219 -3 -283
60 -114 150 -168 263 -160 151 11 281 139 324 320 17 74 19 211 4 292 -9 49
-7 64 11 112 25 69 35 160 21 197 -13 34 -44 35 -123 2z m32 -327 c0 -61 -26
-160 -56 -220 -71 -141 -261 -255 -357 -214 -48 20 -67 51 -67 111 0 92 73
205 179 278 59 40 194 87 254 87 l47 0 0 -42z"/>
</g>
</svg>
