<svg xmlns="http://www.w3.org/2000/svg" xmlns:xlink="http://www.w3.org/1999/xlink" viewBox="0 0 321.37 348.75"><defs><style>.cls-1,.cls-4{stroke:#000;stroke-miterlimit:10;}.cls-1{stroke-width:3px;fill:url(#Dégradé_sans_nom_34);}.cls-2{fill:#f9f7f1;}.cls-3{fill:url(#Dégradé_sans_nom_34-2);}.cls-4{fill:none;stroke-width:2px;}</style><linearGradient id="Dégradé_sans_nom_34" x1="118.72" y1="329.31" x2="252.84" y2="97.02" gradientUnits="userSpaceOnUse"><stop offset="0" stop-color="#c70f17"/><stop offset="0.33" stop-color="#fb7b1e"/><stop offset="0.72" stop-color="#fec601"/><stop offset="0.78" stop-color="#fec805"/><stop offset="0.83" stop-color="#fdcc10"/><stop offset="0.89" stop-color="#fcd423"/><stop offset="0.94" stop-color="#fadf3e"/><stop offset="0.99" stop-color="#f7ed60"/><stop offset="1" stop-color="#f7ee62"/></linearGradient><linearGradient id="Dégradé_sans_nom_34-2" x1="111.15" y1="243.03" x2="113.81" y2="238.42" xlink:href="#Dégradé_sans_nom_34"/></defs><title>Fichier 2</title><g id="Calque_2" data-name="Calque 2"><g id="Cercle"><circle class="cls-1" cx="185.78" cy="213.16" r="134.09"/></g><g id="Calque_3_-_copie" data-name="Calque 3 - copie"><path class="cls-2" d="M151.55,113a.26.26,0,0,1,0-.08c-7.58-42.39,10.06-60.52,11.77-62.16a.19.19,0,0,1,.26,0c1.15,1.14,9.7,9.56,7.21,5.18a.14.14,0,0,1,0-.06c-2.47-12.37,0-18,.17-18.34,0,0,0,0,0,0C213.62-17.79,288.32,5.48,295.69,8a.19.19,0,0,1,0,.36c-6.69,1.88-67.54,20.81-68.34,88.77,0,0-.42,7.66-5.53,13.2s-23.77,19.52-19.17,34a.15.15,0,0,0,.08.11c1.23.71,20.77,11.58,33.13,2.52,12.61-9.25,3.63-31.36,3.41-31.9,0,0,0,0,0,0-.08-.43-3.15-16.26,14.45-23.81l.05,0c16.73-4,21.89,2.5,22.47,3.33a.18.18,0,0,0,.17.07l40.74-2.78a.19.19,0,0,1,.06.38l-40,8.36a.15.15,0,0,0-.07,0c-.79.61-15.55,11.85-25.08,10.19-9.79-1.7.43,17.87-.42,24.68S240.53,163,227.34,167.72,215.85,185.58,182.28,192a.13.13,0,0,0-.08,0c-.87.71-18.36,14.91-22.09,16.57s-12.22,3-12.85,3.08l-.07,0-14.75,9.15-.05,0c-.54.77-11,15.52-14.28,17.59a5.62,5.62,0,0,0-1.3,1.67h0l-8.64,1.15,3.06-9.45h0c0-.12,1.84-7.47,8.78-17.24a.05.05,0,0,0,0,0l-.06.06-14.59,8.27,0,0c-.46.13-12.64,3.54-20.66,2h0c-.19-.05-5.33-1.42-8-3.43a.19.19,0,0,1,0-.3c2.32-2,9.33-4.72,11.57-5.72s-7.15-2.84-8.94-4.08,15.7-13,15.7-13,28.51-21.28,29.36-22.55c.68-1,5.64-5.25,7.66-6.95a.19.19,0,0,0-.18-.32c-4.19,1.55-20,7.22-27.8,7.52h0c-.77-.1-47.76-6.43-67.49-28.32a.19.19,0,0,1,.11-.32c2.48-.36,17.21-2.55,23.83-5.24a.2.2,0,0,0-.12-.37C50.58,144.28,10.56,149.34,1,70.23a.19.19,0,0,1,.28-.2c5,2.72,68,36.2,130.36,35.39a29.24,29.24,0,0,1,15.61,4.29c.26.16.52.35.77.54l3.51,2.74Z"/><path class="cls-3" d="M116.8,240.14h0c-.28.19-5.17,3.37-8.64,1.14Z"/><path d="M108.16,241.29c3.47,2.23,8.36-.95,8.64-1.14C112,248,100.12,279.61,98.93,282.78a2.3,2.3,0,0,0-.14.56,22,22,0,0,0,1.37,7.54C101.36,294,99,297,99,297a.66.66,0,0,1-.08.13l-3.47,2.46a3.89,3.89,0,0,1-4.56-.05l-1.32-1a.2.2,0,0,0-.11,0c-.27,0-1.53-.22-3-3.18a5.67,5.67,0,0,1,2.69-7.55c2.38-1.36,7.35-10.08,7.52-11.17Z"/><path class="cls-4" d="M116.81,240.14a5.62,5.62,0,0,1,1.3-1.67c3.32-2.07,13.74-16.82,14.28-17.59l.05,0,14.75-9.15.07,0c.63-.09,9.16-1.44,12.85-3.08S181.33,192.71,182.2,192a.13.13,0,0,1,.08,0c33.57-6.39,31.88-19.57,45.06-24.25s23.4-25.53,24.26-32.34S242.23,109,252,110.7c9.53,1.66,24.29-9.58,25.08-10.19a.15.15,0,0,1,.07,0l40-8.36a.19.19,0,0,0-.06-.38l-40.74,2.78a.18.18,0,0,1-.17-.07c-.58-.83-5.74-7.31-22.47-3.33l-.05,0c-17.6,7.55-14.53,23.38-14.45,23.81,0,0,0,0,0,0,.22.54,9.2,22.65-3.41,31.9-12.36,9.06-31.9-1.81-33.13-2.52a.15.15,0,0,1-.08-.11c-4.6-14.44,14.07-28.44,19.17-34s5.53-13.2,5.53-13.2c.8-68,61.65-86.89,68.34-88.77a.19.19,0,0,0,0-.36c-7.37-2.47-82.07-25.74-124.76,29.54,0,0,0,0,0,0-.15.32-2.64,6-.17,18.34a.14.14,0,0,0,0,.06c2.49,4.38-6.06-4-7.21-5.18a.19.19,0,0,0-.26,0c-1.71,1.64-19.35,19.77-11.77,62.16a.26.26,0,0,0,0,.08.12.12,0,0,0,0,0c.82.54,9.4,6.28,14.26,12.84,2,2.74,4.33,6.07,6.67,9.26a14.56,14.56,0,0,0,.95,1.13l9.23,9.78"/><path class="cls-4" d="M126.79,197.62,120,214.51s0,0,0,0v0a.05.05,0,0,1,0,0c-6.94,9.77-8.75,17.12-8.78,17.24h0l-3.06,9.45L96.7,276.66c-.17,1.09-5.14,9.81-7.52,11.17a5.67,5.67,0,0,0-2.69,7.55c1.44,3,2.7,3.17,3,3.18a.2.2,0,0,1,.11,0l1.32,1a3.89,3.89,0,0,0,4.56.05l3.47-2.46A.66.66,0,0,0,99,297s2.36-3,1.16-6.16a22,22,0,0,1-1.37-7.54,2.3,2.3,0,0,1,.14-.56c1.19-3.17,13.1-34.79,17.87-42.63"/><path class="cls-4" d="M151.53,113,148,110.25c-.25-.19-.51-.38-.77-.54a29.24,29.24,0,0,0-15.61-4.29C69.3,106.23,6.31,72.75,1.28,70a.19.19,0,0,0-.28.2c9.56,79.11,49.58,74.05,59.34,71.58a.2.2,0,0,1,.12.37c-6.62,2.69-21.35,4.88-23.83,5.24a.19.19,0,0,0-.11.32C56.25,169.63,103.24,176,104,176.06h0c7.79-.3,23.61-6,27.8-7.52a.19.19,0,0,1,.18.32c-2,1.7-7,5.93-7.66,6.95C123.51,177.08,95,198.36,95,198.36s-17.48,11.8-15.7,13,11.24,3.06,8.94,4.08-9.25,3.69-11.57,5.72a.19.19,0,0,0,0,.3c2.65,2,7.79,3.38,8,3.43h0c8,1.5,20.2-1.91,20.66-2l0,0L120,214.61l.06-.06"/><path class="cls-4" d="M116.8,240.14h0c-.28.19-5.17,3.37-8.64,1.14"/><line class="cls-4" x1="116.8" y1="240.14" x2="116.81" y2="240.14"/></g></g></svg>