<svg width="56" height="49" viewBox="0 0 56 49" fill="none" xmlns="http://www.w3.org/2000/svg">
<path d="M35.4286 32.1429C36.7925 32.1429 38.1006 32.6847 39.0651 33.6492C40.0296 34.6137 40.5714 35.9218 40.5714 37.2857V40.7189L40.5531 40.9657C39.8446 45.8275 35.4788 48.1635 28.1531 48.1635C20.8548 48.1635 16.4183 45.8549 15.4606 41.0503L15.4286 40.7143V37.2857C15.4286 35.9218 15.9704 34.6137 16.9349 33.6492C17.8993 32.6847 19.2074 32.1429 20.5714 32.1429H35.4286ZM35.4286 35.5715H20.5714C20.1168 35.5715 19.6807 35.7521 19.3592 36.0736C19.0377 36.395 18.8571 36.8311 18.8571 37.2857V40.5315C19.4971 43.2743 22.4 44.7349 28.1531 44.7349C33.904 44.7349 36.6788 43.2926 37.1428 40.584V37.2857C37.1428 36.8311 36.9622 36.395 36.6407 36.0736C36.3192 35.7521 35.8832 35.5715 35.4286 35.5715ZM37.7006 18.4263L50.2857 18.4286C51.6497 18.4286 52.9578 18.9704 53.9222 19.9349C54.8867 20.8994 55.4286 22.2075 55.4286 23.5715V27.0046L55.4103 27.2515C54.7017 32.1132 50.336 34.4492 43.0103 34.4492L42.2903 34.4423C41.6153 32.8153 40.385 31.4805 38.8183 30.6755C39.9954 30.904 41.3897 31.0206 43.0103 31.0206C48.7611 31.0206 51.536 29.5783 52 26.8697V23.5715C52 23.1168 51.8194 22.6808 51.4979 22.3593C51.1764 22.0378 50.7403 21.8572 50.2857 21.8572H38.2857C38.2857 20.6549 38.08 19.4983 37.7006 18.4263ZM5.71427 18.4286L18.2994 18.4263C17.9767 19.3394 17.785 20.2937 17.7303 21.2606L17.7143 21.8572H5.71427C5.25961 21.8572 4.82358 22.0378 4.50208 22.3593C4.18059 22.6808 3.99998 23.1168 3.99998 23.5715V26.8172C4.63998 29.56 7.54284 31.0206 13.296 31.0206C14.7177 31.0206 15.9566 30.9314 17.0263 30.7577C15.5302 31.5707 14.358 32.872 13.7051 34.4446L13.2937 34.4492C5.9977 34.4492 1.56113 32.1406 0.603411 27.336L0.571411 27V23.5715C0.571411 22.2075 1.11325 20.8994 2.07772 19.9349C3.04219 18.9704 4.3503 18.4286 5.71427 18.4286ZM28 13.8572C30.1217 13.8572 32.1565 14.7 33.6568 16.2003C35.1571 17.7006 36 19.7354 36 21.8572C36 23.9789 35.1571 26.0137 33.6568 27.514C32.1565 29.0143 30.1217 29.8572 28 29.8572C25.8782 29.8572 23.8434 29.0143 22.3431 27.514C20.8428 26.0137 20 23.9789 20 21.8572C20 19.7354 20.8428 17.7006 22.3431 16.2003C23.8434 14.7 25.8782 13.8572 28 13.8572ZM28 17.2857C26.7876 17.2857 25.6248 17.7674 24.7675 18.6247C23.9102 19.482 23.4286 20.6447 23.4286 21.8572C23.4286 23.0696 23.9102 24.2323 24.7675 25.0897C25.6248 25.947 26.7876 26.4286 28 26.4286C29.2124 26.4286 30.3752 25.947 31.2325 25.0897C32.0898 24.2323 32.5714 23.0696 32.5714 21.8572C32.5714 20.6447 32.0898 19.482 31.2325 18.6247C30.3752 17.7674 29.2124 17.2857 28 17.2857ZM42.8571 0.142883C44.9789 0.142883 47.0137 0.985738 48.514 2.48603C50.0143 3.98632 50.8571 6.02115 50.8571 8.14288C50.8571 10.2646 50.0143 12.2994 48.514 13.7997C47.0137 15.3 44.9789 16.1429 42.8571 16.1429C40.7354 16.1429 38.7006 15.3 37.2003 13.7997C35.7 12.2994 34.8571 10.2646 34.8571 8.14288C34.8571 6.02115 35.7 3.98632 37.2003 2.48603C38.7006 0.985738 40.7354 0.142883 42.8571 0.142883ZM13.1428 0.142883C15.2646 0.142883 17.2994 0.985738 18.7997 2.48603C20.3 3.98632 21.1428 6.02115 21.1428 8.14288C21.1428 10.2646 20.3 12.2994 18.7997 13.7997C17.2994 15.3 15.2646 16.1429 13.1428 16.1429C11.0211 16.1429 8.98628 15.3 7.48599 13.7997C5.98569 12.2994 5.14284 10.2646 5.14284 8.14288C5.14284 6.02115 5.98569 3.98632 7.48599 2.48603C8.98628 0.985738 11.0211 0.142883 13.1428 0.142883ZM42.8571 3.57145C41.6447 3.57145 40.4819 4.05309 39.6246 4.91039C38.7673 5.7677 38.2857 6.93046 38.2857 8.14288C38.2857 9.3553 38.7673 10.5181 39.6246 11.3754C40.4819 12.2327 41.6447 12.7143 42.8571 12.7143C44.0695 12.7143 45.2323 12.2327 46.0896 11.3754C46.9469 10.5181 47.4286 9.3553 47.4286 8.14288C47.4286 6.93046 46.9469 5.7677 46.0896 4.91039C45.2323 4.05309 44.0695 3.57145 42.8571 3.57145ZM13.1428 3.57145C11.9304 3.57145 10.7677 4.05309 9.91035 4.91039C9.05304 5.7677 8.57141 6.93046 8.57141 8.14288C8.57141 9.3553 9.05304 10.5181 9.91035 11.3754C10.7677 12.2327 11.9304 12.7143 13.1428 12.7143C14.3553 12.7143 15.518 12.2327 16.3753 11.3754C17.2326 10.5181 17.7143 9.3553 17.7143 8.14288C17.7143 6.93046 17.2326 5.7677 16.3753 4.91039C15.518 4.05309 14.3553 3.57145 13.1428 3.57145Z" fill="url(#paint0_linear)"/>
<defs>
<linearGradient id="paint0_linear" x1="55.4255" y1="48.1644" x2="7.82928" y2="-6.20797" gradientUnits="userSpaceOnUse">
<stop stop-color="#613DC1"/>
<stop offset="1" stop-color="#B8EBFF"/>
</linearGradient>
</defs>
</svg>
