<svg width="60" height="64" viewBox="0 0 60 64" fill="none" xmlns="http://www.w3.org/2000/svg">
<path fill-rule="evenodd" clip-rule="evenodd" d="M34.584 22.5839C34.7698 22.3977 34.9905 22.2499 35.2335 22.1491C35.4765 22.0482 35.737 21.9963 36 21.9963C36.2631 21.9963 36.5236 22.0482 36.7666 22.1491C37.0095 22.2499 37.2303 22.3977 37.416 22.5839L45.416 30.5839C45.6023 30.7697 45.7501 30.9904 45.8509 31.2334C45.9517 31.4764 46.0036 31.7368 46.0036 31.9999C46.0036 32.263 45.9517 32.5235 45.8509 32.7664C45.7501 33.0094 45.6023 33.2301 45.416 33.4159L37.416 41.4159C37.0405 41.7915 36.5311 42.0024 36 42.0024C35.4689 42.0024 34.9596 41.7915 34.584 41.4159C34.2085 41.0404 33.9975 40.531 33.9975 39.9999C33.9975 39.4688 34.2085 38.9595 34.584 38.5839L41.172 31.9999L34.584 25.4159C34.3978 25.2301 34.25 25.0094 34.1492 24.7664C34.0484 24.5235 33.9965 24.263 33.9965 23.9999C33.9965 23.7368 34.0484 23.4764 34.1492 23.2334C34.25 22.9904 34.3978 22.7697 34.584 22.5839ZM29.416 22.5839C29.2303 22.3977 29.0096 22.2499 28.7666 22.1491C28.5236 22.0482 28.2631 21.9963 28 21.9963C27.737 21.9963 27.4765 22.0482 27.2335 22.1491C26.9905 22.2499 26.7698 22.3977 26.584 22.5839L18.584 30.5839C18.3978 30.7697 18.25 30.9904 18.1492 31.2334C18.0484 31.4764 17.9965 31.7368 17.9965 31.9999C17.9965 32.263 18.0484 32.5235 18.1492 32.7664C18.25 33.0094 18.3978 33.2301 18.584 33.4159L26.584 41.4159C26.9596 41.7915 27.4689 42.0024 28 42.0024C28.5311 42.0024 29.0405 41.7915 29.416 41.4159C29.7916 41.0404 30.0026 40.531 30.0026 39.9999C30.0026 39.4688 29.7916 38.9595 29.416 38.5839L22.828 31.9999L29.416 25.4159C29.6023 25.2301 29.7501 25.0094 29.8509 24.7664C29.9517 24.5235 30.0036 24.263 30.0036 23.9999C30.0036 23.7368 29.9517 23.4764 29.8509 23.2334C29.7501 22.9904 29.6023 22.7697 29.416 22.5839Z" fill="url(#paint0_linear)"/>
<path d="M12 0H52C54.1217 0 56.1566 0.842855 57.6569 2.34315C59.1571 3.84344 60 5.87827 60 8V56C60 58.1217 59.1571 60.1566 57.6569 61.6569C56.1566 63.1571 54.1217 64 52 64H12C9.87827 64 7.84344 63.1571 6.34315 61.6569C4.84285 60.1566 4 58.1217 4 56V52H8V56C8 57.0609 8.42143 58.0783 9.17157 58.8284C9.92172 59.5786 10.9391 60 12 60H52C53.0609 60 54.0783 59.5786 54.8284 58.8284C55.5786 58.0783 56 57.0609 56 56V8C56 6.93913 55.5786 5.92172 54.8284 5.17157C54.0783 4.42143 53.0609 4 52 4H12C10.9391 4 9.92172 4.42143 9.17157 5.17157C8.42143 5.92172 8 6.93913 8 8V12H4V8C4 5.87827 4.84285 3.84344 6.34315 2.34315C7.84344 0.842855 9.87827 0 12 0V0Z" fill="url(#paint1_linear)"/>
<path d="M4 20V18C4 17.4696 4.21071 16.9609 4.58579 16.5858C4.96086 16.2107 5.46957 16 6 16C6.53043 16 7.03914 16.2107 7.41421 16.5858C7.78929 16.9609 8 17.4696 8 18V20H10C10.5304 20 11.0391 20.2107 11.4142 20.5858C11.7893 20.9609 12 21.4696 12 22C12 22.5304 11.7893 23.0391 11.4142 23.4142C11.0391 23.7893 10.5304 24 10 24H2C1.46957 24 0.960859 23.7893 0.585786 23.4142C0.210714 23.0391 0 22.5304 0 22C0 21.4696 0.210714 20.9609 0.585786 20.5858C0.960859 20.2107 1.46957 20 2 20H4ZM4 32V30C4 29.4696 4.21071 28.9609 4.58579 28.5858C4.96086 28.2107 5.46957 28 6 28C6.53043 28 7.03914 28.2107 7.41421 28.5858C7.78929 28.9609 8 29.4696 8 30V32H10C10.5304 32 11.0391 32.2107 11.4142 32.5858C11.7893 32.9609 12 33.4696 12 34C12 34.5304 11.7893 35.0391 11.4142 35.4142C11.0391 35.7893 10.5304 36 10 36H2C1.46957 36 0.960859 35.7893 0.585786 35.4142C0.210714 35.0391 0 34.5304 0 34C0 33.4696 0.210714 32.9609 0.585786 32.5858C0.960859 32.2107 1.46957 32 2 32H4ZM4 44V42C4 41.4696 4.21071 40.9609 4.58579 40.5858C4.96086 40.2107 5.46957 40 6 40C6.53043 40 7.03914 40.2107 7.41421 40.5858C7.78929 40.9609 8 41.4696 8 42V44H10C10.5304 44 11.0391 44.2107 11.4142 44.5858C11.7893 44.9609 12 45.4696 12 46C12 46.5304 11.7893 47.0391 11.4142 47.4142C11.0391 47.7893 10.5304 48 10 48H2C1.46957 48 0.960859 47.7893 0.585786 47.4142C0.210714 47.0391 0 46.5304 0 46C0 45.4696 0.210714 44.9609 0.585786 44.5858C0.960859 44.2107 1.46957 44 2 44H4Z" fill="url(#paint2_linear)"/>
<defs>
<linearGradient id="paint0_linear" x1="46.0021" y1="42.0028" x2="27.0779" y2="15.5103" gradientUnits="userSpaceOnUse">
<stop stop-color="#613DC1"/>
<stop offset="1" stop-color="#B8EBFF"/>
</linearGradient>
<linearGradient id="paint1_linear" x1="59.9969" y1="64.0013" x2="-3.43396" y2="8.49929" gradientUnits="userSpaceOnUse">
<stop stop-color="#613DC1"/>
<stop offset="1" stop-color="#B8EBFF"/>
</linearGradient>
<linearGradient id="paint2_linear" x1="11.9993" y1="48.0006" x2="-9.04084" y2="40.1106" gradientUnits="userSpaceOnUse">
<stop stop-color="#613DC1"/>
<stop offset="1" stop-color="#B8EBFF"/>
</linearGradient>
</defs>
</svg>
