<svg width="64" height="64" viewBox="0 0 64 64" fill="none" xmlns="http://www.w3.org/2000/svg">
<path d="M48.584 0.583486C48.7698 0.397233 48.9905 0.249461 49.2334 0.148636C49.4764 0.0478099 49.7369 -0.00408936 50 -0.00408936C50.2631 -0.00408936 50.5235 0.0478099 50.7665 0.148636C51.0095 0.249461 51.2302 0.397233 51.416 0.583486L63.416 12.5835C63.6022 12.7693 63.75 12.99 63.8508 13.233C63.9517 13.4759 64.0036 13.7364 64.0036 13.9995C64.0036 14.2626 63.9517 14.523 63.8508 14.766C63.75 15.009 63.6022 15.2297 63.416 15.4155L23.416 55.4155C23.224 55.6061 22.9954 55.7558 22.744 55.8555L2.74399 63.8555C2.38053 64.001 1.98237 64.0366 1.59887 63.9579C1.21536 63.8792 0.863376 63.6897 0.58655 63.4129C0.309724 63.1361 0.12023 62.7841 0.0415604 62.4006C-0.0371094 62.0171 -0.00149544 61.6189 0.143987 61.2555L8.14399 41.2555C8.2437 41.004 8.39338 40.7754 8.58399 40.5835L48.584 0.583486ZM44.828 9.99949L54 19.1715L59.172 13.9995L50 4.82749L44.828 9.99949ZM51.172 21.9995L42 12.8275L16 38.8275V39.9995H18C18.5304 39.9995 19.0391 40.2102 19.4142 40.5853C19.7893 40.9603 20 41.4691 20 41.9995V43.9995H22C22.5304 43.9995 23.0391 44.2102 23.4142 44.5853C23.7893 44.9603 24 45.4691 24 45.9995V47.9995H25.172L51.172 21.9995ZM12.128 42.6995L11.704 43.1235L5.59199 58.4075L20.876 52.2955L21.3 51.8715C20.9185 51.7289 20.5896 51.4733 20.3572 51.1388C20.1249 50.8042 20.0003 50.4068 20 49.9995V47.9995H18C17.4696 47.9995 16.9608 47.7888 16.5858 47.4137C16.2107 47.0386 16 46.5299 16 45.9995V43.9995H14C13.5927 43.9992 13.1952 43.8745 12.8607 43.6422C12.5262 43.4099 12.2705 43.081 12.128 42.6995Z" fill="url(#paint0_linear)"/>
<defs>
<linearGradient id="paint0_linear" x1="64" y1="64" x2="2.88748e-10" y2="-2.88748e-10" gradientUnits="userSpaceOnUse">
<stop stop-color="#613DC1"/>
<stop offset="1" stop-color="#B8EBFF"/>
</linearGradient>
</defs>
</svg>
