<svg width="50" height="50" viewBox="0 0 50 50" fill="none" xmlns="http://www.w3.org/2000/svg">
<path fill-rule="evenodd" clip-rule="evenodd" d="M6.25 11.4583C6.25 11.1821 6.35975 10.9171 6.5551 10.7218C6.75045 10.5264 7.0154 10.4167 7.29167 10.4167H42.7083C42.9846 10.4167 43.2496 10.5264 43.4449 10.7218C43.6403 10.9171 43.75 11.1821 43.75 11.4583C43.75 11.7346 43.6403 11.9996 43.4449 12.1949C43.2496 12.3903 42.9846 12.5 42.7083 12.5H7.29167C7.0154 12.5 6.75045 12.3903 6.5551 12.1949C6.35975 11.9996 6.25 11.7346 6.25 11.4583ZM6.25 25C6.25 24.7237 6.35975 24.4588 6.5551 24.2634C6.75045 24.0681 7.0154 23.9583 7.29167 23.9583H42.7083C42.9846 23.9583 43.2496 24.0681 43.4449 24.2634C43.6403 24.4588 43.75 24.7237 43.75 25C43.75 25.2763 43.6403 25.5412 43.4449 25.7366C43.2496 25.9319 42.9846 26.0417 42.7083 26.0417H7.29167C7.0154 26.0417 6.75045 25.9319 6.5551 25.7366C6.35975 25.5412 6.25 25.2763 6.25 25ZM6.25 38.5417C6.25 38.2654 6.35975 38.0004 6.5551 37.8051C6.75045 37.6097 7.0154 37.5 7.29167 37.5H42.7083C42.9846 37.5 43.2496 37.6097 43.4449 37.8051C43.6403 38.0004 43.75 38.2654 43.75 38.5417C43.75 38.8179 43.6403 39.0829 43.4449 39.2782C43.2496 39.4736 42.9846 39.5833 42.7083 39.5833H7.29167C7.0154 39.5833 6.75045 39.4736 6.5551 39.2782C6.35975 39.0829 6.25 38.8179 6.25 38.5417Z" fill="black"/>
</svg>
