<svg width="50" height="50" viewBox="0 0 50 50" fill="none" xmlns="http://www.w3.org/2000/svg">
<path d="M37.5 20.3125H34.375C34.3738 19.0697 33.8795 17.8781 33.0007 16.9993C32.1219 16.1205 30.9303 15.6262 29.6875 15.625V12.5C31.7587 12.5025 33.7444 13.3264 35.209 14.791C36.6736 16.2556 37.4975 18.2413 37.5 20.3125Z" fill="#51AE6F"/>
<path d="M43.75 20.3125H40.625C40.6217 17.4127 39.4683 14.6326 37.4178 12.5822C35.3673 10.5317 32.5873 9.37831 29.6875 9.375V6.25C33.4158 6.25414 36.9903 7.73704 39.6266 10.3734C42.2629 13.0097 43.7458 16.5842 43.75 20.3125ZM31.7703 33.5656L35.2703 30.0656C35.7388 29.597 36.3345 29.2762 36.9836 29.1429C37.6326 29.0095 38.3066 29.0696 38.9218 29.3156L43.1843 31.0219C43.8126 31.2732 44.3511 31.7071 44.7304 32.2674C45.1098 32.8278 45.3125 33.489 45.3125 34.1656V41.9172C45.3136 42.3779 45.2206 42.834 45.0393 43.2576C44.8581 43.6811 44.5922 44.0632 44.2582 44.3805C43.9241 44.6977 43.5288 44.9435 43.0964 45.1027C42.6641 45.2619 42.2038 45.3311 41.7437 45.3062C11.8656 43.4469 5.83122 18.1406 4.71091 8.45C4.65665 7.97624 4.7033 7.49637 4.8478 7.04193C4.9923 6.5875 5.23138 6.16881 5.5493 5.8134C5.86722 5.45799 6.25678 5.17392 6.69236 4.97986C7.12795 4.78581 7.59968 4.68617 8.07653 4.6875H15.6906C16.3673 4.68748 17.0284 4.89021 17.5888 5.26953C18.1491 5.64886 18.583 6.18738 18.8343 6.81562L20.539 11.0781C20.785 11.6934 20.8451 12.3673 20.7118 13.0164C20.5785 13.6655 20.2576 14.2612 19.789 14.7297L16.289 18.2297C16.289 18.2297 18.2297 31.8734 31.7703 33.5656Z" fill="#51AE6F"/>
</svg>
