<svg width="50" height="50" viewBox="0 0 50 50" fill="none" xmlns="http://www.w3.org/2000/svg">
<path d="M25 22.9167C26.7259 22.9167 28.125 21.5176 28.125 19.7917C28.125 18.0658 26.7259 16.6667 25 16.6667C23.2741 16.6667 21.875 18.0658 21.875 19.7917C21.875 21.5176 23.2741 22.9167 25 22.9167Z" fill="#51AE6F"/>
<path d="M25.0002 4.16667C20.6086 4.16645 16.3944 5.8995 13.2736 8.98915C10.1527 12.0788 8.37741 16.2753 8.3335 20.6667C8.3335 32.0833 23.021 44.7917 23.646 45.3333C24.0234 45.6561 24.5036 45.8335 25.0002 45.8335C25.4967 45.8335 25.977 45.6561 26.3543 45.3333C27.0835 44.7917 41.6668 32.0833 41.6668 20.6667C41.6229 16.2753 39.8476 12.0788 36.7267 8.98915C33.6059 5.8995 29.3917 4.16645 25.0002 4.16667ZM25.0002 27.0833C23.558 27.0833 22.1482 26.6557 20.9491 25.8545C19.75 25.0532 18.8154 23.9144 18.2635 22.5821C17.7117 21.2497 17.5673 19.7836 17.8486 18.3691C18.13 16.9547 18.8244 15.6554 19.8442 14.6357C20.8639 13.6159 22.1632 12.9215 23.5776 12.6401C24.9921 12.3588 26.4582 12.5032 27.7906 13.055C29.1229 13.6069 30.2617 14.5415 31.063 15.7406C31.8642 16.9397 32.2918 18.3495 32.2918 19.7917C32.2918 21.7255 31.5236 23.5802 30.1561 24.9477C28.7887 26.3151 26.934 27.0833 25.0002 27.0833Z" fill="#51AE6F"/>
</svg>
