<svg width="328" height="356" viewBox="0 0 328 356" fill="none" xmlns="http://www.w3.org/2000/svg">
<path d="M1.62215 214.269C21.2876 207.857 41.9174 204.909 62.5916 205.559C96.187 206.803 117.34 216.757 150.935 214.269C184.531 211.78 201.95 203.07 223.103 204.314C244.256 205.559 281.584 208.047 281.584 208.047L277.851 261.551L218.126 283.948C218.126 283.948 117.34 291.414 113.607 290.169C109.874 288.925 10.3321 241.854 10.3321 241.854C10.3321 241.854 -0.866403 219.246 1.62215 214.269Z" fill="#7AD3E8"/>
<path d="M1.62213 218.001C1.62213 218.001 22.7748 229.2 42.6832 226.711C62.5916 224.223 82.5 216.757 104.897 218.001C127.294 219.246 194.485 234.177 224.347 222.978C254.21 211.78 272.874 188.139 285.317 189.383C297.76 190.627 300.248 236.666 300.248 236.666C300.248 236.666 254.21 269.017 252.966 270.261C251.721 271.505 154.668 290.169 154.668 290.169C154.668 290.169 50.1489 270.261 48.9046 270.261C47.6603 270.261 12.4349 252.057 12.4349 252.057C12.4349 252.057 2.86641 224.223 1.62213 218.001Z" fill="#31A3BD"/>
<path d="M10.3321 239.154C10.3321 239.154 26.5077 225.467 62.5916 229.2C98.6756 232.933 129.782 249.108 157.157 246.62C184.531 244.131 208.172 213.024 239.279 209.292C270.386 205.559 281.584 209.292 281.584 209.292L244.256 249.108L163.378 264.04L75.0344 270.261L10.3321 241.854V239.154Z" fill="#1D7C92"/>
<path d="M165.244 31.9824C15.9313 31.9824 1 162.818 1 186.372C1 186.372 8.46565 201.204 69.4351 196.227C130.405 191.25 146.58 170.097 146.58 170.097C146.58 170.097 162.756 141.479 157.779 109.127C164 135.257 166.489 138.99 156.534 171.341C206.305 173.83 218.748 176.318 218.748 176.318C218.748 176.318 221.237 168.853 201.328 147.7C228.702 134.013 259.809 131.524 271.008 152.677C282.206 173.83 273.496 212.402 248.611 224.845C223.725 237.288 207.55 221.112 164 231.066C120.45 241.021 121.695 250.975 78.145 257.196C34.5954 263.417 5.35496 228.64 5.35496 228.64C5.35496 228.64 28.374 355.494 166.489 355.494C304.603 355.494 327 237.288 327 192.494C327 166.364 314.557 31.9824 165.244 31.9824ZM68.1908 139.612C65.8529 139.612 63.5676 138.919 61.6237 137.62C59.6798 136.321 58.1647 134.475 57.27 132.315C56.3753 130.155 56.1413 127.778 56.5974 125.485C57.0535 123.192 58.1793 121.086 59.8324 119.433C61.4856 117.78 63.5918 116.654 65.8848 116.198C68.1777 115.742 70.5545 115.976 72.7144 116.871C74.8743 117.765 76.7205 119.28 78.0193 121.224C79.3182 123.168 80.0115 125.454 80.0115 127.792C80.0115 130.927 78.7661 133.933 76.5493 136.15C74.3325 138.367 71.3259 139.612 68.1908 139.612V139.612Z" fill="white" stroke="white" stroke-miterlimit="10"/>
<path d="M139.737 25.1389C139.737 25.1389 158.401 2.74193 160.889 0.253381C163.378 -2.23517 200.806 13.6915 234.973 44.3007C178.309 22.6503 139.737 25.1389 139.737 25.1389Z" fill="white"/>
</svg>
