<svg xmlns="http://www.w3.org/2000/svg" viewBox="0 0 447.55 213.6"><defs><style>.cls-1{fill:none;stroke:#000;stroke-miterlimit:10;}</style></defs><title>Fichier 1</title><g id="Calque_2" data-name="Calque 2"><g id="Calque_2-2" data-name="Calque 2"><path d="M213.89,57.52c-141,0-137,156-137,156h27l65-79,29,38-12-22,30-45,52,86-10-21,11-14,50,57h27S354.89,57.52,213.89,57.52Zm-36.5,42A10.5,10.5,0,1,1,187.89,89,10.5,10.5,0,0,1,177.39,99.52Z"/><path d="M373.78,151.12,369.65,134l-.58-2.43-1.85,1.85,18.55,6.28,2.63.89-.36-2.74-14.38,10.8-2.08,1.56a1.56,1.56,0,0,0-.54,2.06,1.5,1.5,0,0,0,2,.53L387.47,142l2.09-1.56a1.52,1.52,0,0,0-.36-2.74l-18.55-6.29-2.63-.89a1.52,1.52,0,0,0-1.85,1.85l4.13,17.11.59,2.43C371.34,153.79,374.24,153,373.78,151.12Z"/><path d="M395,151.42a28.17,28.17,0,0,1,1.11,5.66c.28,3,.27,6.84-1.88,9.28a6.84,6.84,0,0,1-4.65,2.11,39.61,39.61,0,0,1-7.14-.17,12.91,12.91,0,0,1-4.54-1.15,5.37,5.37,0,0,1-2.47-2.65c-1.88-3.94-1.32-9.16-1.49-13.48-.05-1.35-1-2.77-2.54-2a6.6,6.6,0,0,0-1.87,2.25c-1.84,2.68-3.84,5.37-6.62,7.16a11.44,11.44,0,0,1-12.25.07c-3.7-2.18-4.86-6.1-4.49-10.19a23.45,23.45,0,0,1,1.12-5c.23-.69.48-1.38.75-2.05l.2-.45.27-.59c.07-.16.15-.31.23-.46.9-1.71-1.69-3.23-2.59-1.52-2.94,5.58-4.79,13.79-.88,19.33a14.59,14.59,0,0,0,13.91,5.56c4.19-.69,7.67-3.51,10.29-6.71,1-1.25,1.93-2.56,2.84-3.89l.43-.62.2-.27c-.26.33,0,.08,0,0l.13-.13c.08.09-.39.21-.5.23a2,2,0,0,1-1.52-.59s-.22-.32-.11-.24,0-.36,0-.12a30.73,30.73,0,0,0,.05,4.29c.05,1.38.11,2.76.24,4.13a21.35,21.35,0,0,0,1.28,6c1.39,3.38,4.26,5.14,7.78,5.75a44.72,44.72,0,0,0,7.22.51A12.91,12.91,0,0,0,394.4,170c6.18-3.77,5.25-12.91,3.59-18.89l-.15-.52c-.58-1.84-3.47-1.05-2.89.8Z"/><polyline class="cls-1" points="442.39 175.02 382.39 151.02 445.39 192.02"/><line class="cls-1" x1="427.39" y1="198.02" x2="382.39" y2="151.02"/><polyline class="cls-1" points="316.16 104.82 363.39 139.02 319.39 97.02"/><path class="cls-1" d="M311.39,119c0,1,52,20,52,20"/><path d="M387.81,187.71a39.94,39.94,0,0,0,12.33,6.53,25.94,25.94,0,0,0,11.29,1.23,19.82,19.82,0,0,0,5.74-1.67,4.26,4.26,0,0,0,2.29-2.52,22,22,0,0,0,1.31-3.7,20.23,20.23,0,0,0,.07-10,1.5,1.5,0,0,0-2.89.8,16.63,16.63,0,0,1,.27,6.59,17.63,17.63,0,0,1-.76,3.21c-.31.93-.64,2.31-1.48,2.84a13,13,0,0,1-5.05,1.47c-6.12.76-12.3-1.57-17.5-4.63-.92-.55-1.83-1.12-2.7-1.74-.27-.18-.53-.37-.79-.56s.09.07,0,0c-1.49-1.18-3.63.92-2.12,2.12Z"/><path d="M425.1,177.78c1.72,2.4,1.52,6.07,1.41,8.88-.05,1.43-.17,2.86-.33,4.28-.1.81-.11.91-.23,1.68a1.54,1.54,0,0,0,1,1.85c2.07.47,4.63.61,6.23-1.07a20.29,20.29,0,0,0,3.18-5.29c1.78-3.73,2.83-7.89,1.94-12-1.24-5.77-6.18-9.82-11.34-12.11a26.73,26.73,0,0,0-4.26-1.54c-1.88-.46-2.68,2.43-.8,2.89a22.52,22.52,0,0,1,8.16,3.87,14,14,0,0,1,4.69,5.58,12.82,12.82,0,0,1,.15,8.93,27.43,27.43,0,0,1-3.41,6.88c-.16.25-.32.53-.5.77.27-.36-.15.08-.16.09a4.25,4.25,0,0,1-3.08.1l1,1.85a53.6,53.6,0,0,0,.68-7c.11-3.25.15-7.35-1.83-10.12-1.11-1.56-3.72-.06-2.59,1.52Z"/><path d="M415.1,193.78c1.84,2.42,5.32,2.59,8,1.84a19.38,19.38,0,0,0,5-2.31,1.5,1.5,0,1,0-1.51-2.59,15.19,15.19,0,0,1-4.71,2.11l-.51.11c-.08,0-.61.08-.2,0-.26,0-.52.05-.78.05s-.54,0-.8,0c-.43,0,.2.05-.05,0l-.3-.05a4,4,0,0,1-.57-.16l-.27-.09c-.24-.07.37.18.05,0l-.73-.43c-.21-.13.33.3,0,0l-.17-.15c-.12-.13-.36-.45.08.12a1.56,1.56,0,0,0-2.05-.54,1.52,1.52,0,0,0-.54,2.06Z"/><path d="M425.45,103.92a66,66,0,0,1,2.11,7.29,87.28,87.28,0,0,1,2.46,17.6,63.25,63.25,0,0,1-2.92,22.33A45.57,45.57,0,0,1,413,171.8a54.46,54.46,0,0,1-13.22,7.94c-1.31.57-2.63,1.08-4,1.55-.7.26-1.42.48-2.13.73s-1.06.56-1.62.81c-1.75.78-3.54,1.1-4.44,3a10.07,10.07,0,0,0-.71,4.18,1.5,1.5,0,0,0,3,0c0-1-.05-2.49.65-3.26a4.54,4.54,0,0,1,1.77-.83c1.14-.42,2.16-1,3.31-1.4,1.38-.47,2.74-1,4.09-1.54a59.29,59.29,0,0,0,13.82-7.82,48.51,48.51,0,0,0,15.69-21.09,62.8,62.8,0,0,0,3.85-22.84,90.71,90.71,0,0,0-2.2-19,63.69,63.69,0,0,0-2.49-9s0-.08,0-.12c-.66-1.79-3.57-1-2.89.8Z"/><path d="M342.39,205.52c2.68-.22,5.36-.38,8.05-.43q1.17,0,2.34,0a14.5,14.5,0,0,0,1.76.17c.36-.11-.15.09-.15-.12,0,.08.32.36.39.43.51.59,1,1.19,1.53,1.77,2.33,2.61,5.81,6.52,9.68,6.25a8.06,8.06,0,0,0,6.29-3.71c2.37-4.25.11-10.17-1.44-14.26-.67-1.77-3.51-1.06-2.89.8,1.05,3.17,2.15,6.35,2.93,9.61.1.4.14.2,0,0,.28.53.21.93.76,1.33a6.78,6.78,0,0,0,1.28.67,7.66,7.66,0,0,0,6.64.24,6.77,6.77,0,0,0,2.91-3.16,13.44,13.44,0,0,0,.95-2.76,10.54,10.54,0,0,0,.41-3.69c-.6-3.66-3.8-6.68-7-8.05a1.51,1.51,0,0,0-1.84,1.05,1.54,1.54,0,0,0,1,1.85,8.41,8.41,0,0,1,4.83,5.48,7.38,7.38,0,0,1-.43,3.17,6.31,6.31,0,0,1-1.52,3c-1.57,1.49-4,.76-5.72-.36l.74,1.3a8.06,8.06,0,0,0-.41-2c-.76-2.85-1.71-5.65-2.64-8.45l-2.89.8a33.57,33.57,0,0,1,2.18,7.73,8.34,8.34,0,0,1-.29,3.92,3.34,3.34,0,0,1-1.85,1.84,5.75,5.75,0,0,1-2.63.68c-1.58-.18-3.09-1.57-4.21-2.58a45,45,0,0,1-3.68-3.89,4.38,4.38,0,0,0-2.25-1.78,16.63,16.63,0,0,0-4.29-.26c-2.85,0-5.7.2-8.54.44-1.91.16-1.92,3.16,0,3Z"/><path d="M383,201.47c2.18.58,5,.54,6.73-1.09s1.67-3.78,1.31-5.8a21.94,21.94,0,0,0-4.19-9.22c-7.46-9.59-20.95-7.72-31.61-7.7a25,25,0,0,1-9.79-2.23,49,49,0,0,1-7.29-3.71c-1.64-1-3.15,1.58-1.51,2.59,4.68,2.92,10.2,5.49,15.69,6.2,4.33.56,8.83-.12,13.17-.07,5.28.06,10.91.62,15.46,3.54a15,15,0,0,1,5.33,6.18c1,2.06,2.43,5.13,1.81,7.3a1.37,1.37,0,0,1-.84,1,4.33,4.33,0,0,1-1.35.31c-.31,0-.62,0-.93,0l-.4,0c-.36,0,.33.06-.07,0a6.14,6.14,0,0,1-.72-.15,1.51,1.51,0,0,0-.8,2.9Z"/><path d="M302.1,93.78a29,29,0,0,0,8.54,7.33,25.62,25.62,0,0,0,21.85,2c6.37-2.34,11.78-6.65,16.46-11.48a1.58,1.58,0,0,0,.24-1.82c-.11-.25,0,.09,0,.06-.1-.24-.19-.48-.29-.71-.34-.86-.65-1.73-.95-2.6a52.48,52.48,0,0,1-2-7.91,24.44,24.44,0,0,1-.09-9.18c.75-3.55,1.74-7.05,2.69-10.55a91,91,0,0,0,2.31-10.45l-2.2.89c6,2.62,11.24,6.86,16,11.26a146,146,0,0,1,11.52,11.95c.72.84,1.45,1.69,2.14,2.56a1.51,1.51,0,0,0,1.46.39l.16,0c.28,0-.42,0,.14,0s1.21-.13,1.81-.16a41.14,41.14,0,0,1,6.08.07,33.61,33.61,0,0,1,16.63,5.77,28.9,28.9,0,0,1,8.49,9.67,1.52,1.52,0,0,0,2.35.3A25.59,25.59,0,0,1,425,85.67a22,22,0,0,1,7.45-.61c4.73.32,9.21,1.21,13.73-.75l-2.2-.89a40.72,40.72,0,0,1-1,18.43,24.42,24.42,0,0,1-12.35,14.87c-1.73.88-.21,3.47,1.51,2.59a26.58,26.58,0,0,0,11.93-12.08,37.32,37.32,0,0,0,3.47-15.74,50.63,50.63,0,0,0-.71-8.87c-.17-1.06-1.42-1.24-2.2-.9-4.28,1.85-9.09.41-13.53.27-6.81-.2-12.66,2.63-17.78,7l2.36.3a32.27,32.27,0,0,0-17.18-14.68,41.1,41.1,0,0,0-16-2.34,29.55,29.55,0,0,0-3.51.33l1.46.39a118.18,118.18,0,0,0-20.93-20.58,47,47,0,0,0-9.37-5.66c-.77-.33-2-.16-2.2.9-1,7-3.36,13.66-4.9,20.52-1.38,6.17-.1,12.63,1.83,18.54a47.08,47.08,0,0,0,1.72,4.6l.23-1.82c-6.63,6.84-15.34,13.05-25.34,12.15a25,25,0,0,1-14.52-7c-.64-.6-1.26-1.24-1.85-1.9-.16-.18-.92-1.14-.43-.5-1.15-1.52-3.76,0-2.59,1.52Z"/><path d="M360.64,78.72a69.75,69.75,0,0,0-12.42,9.61c-7.86,7.4-14.4,16.5-17.64,26.87a48.84,48.84,0,0,0-1.6,21.72c.28,1.9,3.17,1.09,2.9-.8-1.75-11.91,1.53-23.66,8.13-33.59a74,74,0,0,1,17.83-18.32,49.93,49.93,0,0,1,4.31-2.9,1.5,1.5,0,0,0-1.51-2.59Z"/><path d="M358.65,101.81l.58-.27.68-.3c.21-.09-.21.08.18-.08l.36-.14a34.79,34.79,0,0,1,5-1.6A15.53,15.53,0,0,1,370.8,99a4.86,4.86,0,0,1,3.8,2.3,1.5,1.5,0,0,0,2.59-1.52c-3.64-6.15-12.54-3.69-17.84-1.51-.74.3-1.49.61-2.21,1-1.73.87-.21,3.45,1.51,2.59Z"/><path d="M399.79,114.47c.45-.12.91-.22,1.37-.31s1-.19,1.53-.26l.26,0,.29,0,1-.1a21.51,21.51,0,0,1,4.32,0c-.28,0,.15,0,.23,0a4,4,0,0,1,.48.09,9.85,9.85,0,0,1,1.07.27,4,4,0,0,1,.45.15l.25.09c.22.09-.2-.09,0,0a9,9,0,0,1,.87.46,4.45,4.45,0,0,1,1.26,1.22,4.84,4.84,0,0,1,.69,1.93,1.55,1.55,0,0,0,1.5,1.5,1.5,1.5,0,0,0,1.5-1.5,7.55,7.55,0,0,0-2.26-4.84,9.48,9.48,0,0,0-4.41-2.16,24,24,0,0,0-9.17.12c-.69.12-1.38.25-2.06.43a1.51,1.51,0,0,0,.8,2.9Z"/><path d="M373.33,114l-.32.3-.38.32-.23.19-.09.07a16.65,16.65,0,0,1-3.39,2,11.23,11.23,0,0,1-4.44.86,9.81,9.81,0,0,1-5.33-2c-2.91-2.09-4.87-5.32-6.46-8.46-.87-1.72-3.46-.2-2.59,1.52,2.66,5.25,6.79,10.89,13,11.76a14.53,14.53,0,0,0,10.22-2.78,15.92,15.92,0,0,0,2.08-1.68,1.5,1.5,0,0,0-2.12-2.12Z"/><path d="M392.89,122c.83,7.1,4.78,17.2,13.62,15.67,4.23-.73,7.91-3.75,10.94-6.61,1.41-1.33-.71-3.44-2.12-2.12-2.48,2.34-5.36,4.76-8.74,5.65a6,6,0,0,1-5.33-.89,1.36,1.36,0,0,1-.31-.23l-.51-.48c-.17-.17-.33-.34-.49-.52s-.35-.42-.39-.48a16.3,16.3,0,0,1-1.51-2.55c-.22-.47-.34-.76-.45-1-.18-.48-.36-1-.52-1.43q-.39-1.22-.69-2.46c-.16-.68-.3-1.37-.42-2.06,0-.2-.06-.41-.1-.61s.06.48,0,.14a1.54,1.54,0,0,0-1.5-1.5,1.5,1.5,0,0,0-1.5,1.5Z"/><path d="M102.55,115.89l-.31-.23c-.39-.28,0,0-.08-.06l-.5-.4a37.12,37.12,0,0,1-2.94-2.66A43.08,43.08,0,0,1,91,102.35a39.66,39.66,0,0,1-4.93-16.51A48.28,48.28,0,0,1,90.51,63c5.65-12.69,15-23.46,24.94-32.95a1.51,1.51,0,0,0-.66-2.51C102,24.68,86.93,23.26,75.17,30.39c-9.81,5.94-14.53,16.82-16.11,27.78A98.1,98.1,0,0,0,58.89,82l1.5-1.5a45.12,45.12,0,0,0-6.47.18A57.88,57.88,0,0,0,39,83.89,39.87,39.87,0,0,0,23.27,94a38,38,0,0,0-9.36,20.86c-1.6,11.74.76,23.79,4.21,35,.57,1.86,1.19,3.71,1.83,5.55a1.51,1.51,0,0,0,2.89,0c3.31-11.5,9.4-24.48,21-29.56,9.61-4.19,20-.51,27.61,6,6,5.13,10.67,11.67,14.43,18.59.92,1.7,3.51.19,2.59-1.51-6.22-11.44-15.6-23.24-28.7-26.87a25.62,25.62,0,0,0-15.21.35A31.15,31.15,0,0,0,31,132.21c-5.36,6.49-8.75,14.38-11.06,22.41h2.89c-4-11.47-7.11-23.73-6.32-36C17,111.13,19.33,103.5,24,97.71a33,33,0,0,1,6.79-6.29,37.72,37.72,0,0,1,3.8-2.31c.66-.35,1.33-.69,2-1s1.2-.54,1.73-.76a50.89,50.89,0,0,1,7.73-2.41c1.2-.28,2.41-.51,3.63-.71.55-.09,1.1-.18,1.66-.25l.54-.07.79-.09c2.54-.27,5-.23,7.57-.31h.11a1.5,1.5,0,0,0,1.5-1.5c-1.22-12.09-1.42-25.55,4-36.76A28.85,28.85,0,0,1,75,34.07a32.58,32.58,0,0,1,14.75-5.44c8.08-1,16.34.05,24.23,1.84L113.33,28C98.3,42.27,82.84,61.31,83,83.23a44.83,44.83,0,0,0,12.63,30.4,36,36,0,0,0,5.46,4.85c1.59,1.1,3.09-1.5,1.51-2.59Z"/><path d="M84.64,37.72C76,43.14,68.93,53,68.55,63.36A29.21,29.21,0,0,0,72.1,77.78c.88,1.71,3.47.2,2.59-1.52-3.54-6.87-4.27-14.69-1-21.8a35.58,35.58,0,0,1,9.88-12.28c.69-.57.93-.75,1.75-1.33.26-.18.52-.37.79-.54,1.63-1,.13-3.62-1.51-2.59Z"/><path d="M92.39,42.52a5.82,5.82,0,0,0-2.93,1.28,25.06,25.06,0,0,0-3.95,3.48,36,36,0,0,0-7.88,13.48A37.39,37.39,0,0,0,75.89,72a1.5,1.5,0,0,0,3,0,33.89,33.89,0,0,1,6.39-19.78,28.46,28.46,0,0,1,4.78-5.15,13.37,13.37,0,0,1,1.75-1.24c.13-.08.89-.49.44-.25.27-.15.56-.1.14-.08,1.93-.07,1.94-3.07,0-3Z"/><path d="M27.84,108.42a10.2,10.2,0,0,1,.33-1.43,13.71,13.71,0,0,1,1.37-3.28,20.29,20.29,0,0,1,9.13-8.39,31.66,31.66,0,0,1,10.72-2.8c1.91-.19,1.93-3.19,0-3-6.45.64-12.88,2.55-17.82,6.92a21.33,21.33,0,0,0-6.11,9.18,10.48,10.48,0,0,0-.51,2,1.56,1.56,0,0,0,1,1.85,1.52,1.52,0,0,0,1.85-1Z"/><path d="M27.84,129.42a30.85,30.85,0,0,1,3.2-8c2.74-5,6.76-9.51,12.13-11.72A23.66,23.66,0,0,1,56,108.47c1.89.3,2.71-2.59.8-2.9-7.92-1.28-15.72.4-21.77,5.84a35,35,0,0,0-9,13.89A25.59,25.59,0,0,0,25,128.62c-.44,1.88,2.45,2.68,2.89.8Z"/><path class="cls-1" d="M108.39,16s-9-3-4-13S108.39,16,108.39,16Z"/><path class="cls-1" d="M122.39,19s4-13,12-13S122.39,19,122.39,19Z"/><path class="cls-1" d="M126.39,29c1,0,16,3,14,10S126.39,29,126.39,29Z"/><path class="cls-1" d="M8.39,162s-3,6-6,7-2-9,0-9S8.39,162,8.39,162Z"/><path class="cls-1" d="M21.39,173c-1,1-2,19,7,17S21.39,173,21.39,173Z"/><path class="cls-1" d="M31.39,162s4,10,12,10S31.39,162,31.39,162Z"/></g></g></svg>