<svg width="1557" height="1875" viewBox="0 0 1557 1875" fill="none" xmlns="http://www.w3.org/2000/svg">
<g clip-path="url(#clip0_5_2)">
<path d="M876.808 1346.31L872.502 1332.09L895.755 1316.34L911.688 1337.76L908.157 1347.75" fill="#1E1E1C"/>
<path d="M626.538 1265.55L622.146 1251.24L645.398 1235.5L661.417 1256.91L657.8 1266.9" fill="#1E1E1C"/>
<path d="M477.633 835.487C477.48 832.914 476.731 830.41 475.444 828.164C474.156 825.919 472.365 823.992 470.205 822.53C468.045 821.069 465.575 820.111 462.982 819.73C460.388 819.35 457.741 819.556 455.241 820.334C461.7 812.461 460.925 808.566 460.839 808.143C460.722 807.797 460.505 807.493 460.214 807.267C459.924 807.041 459.572 806.904 459.203 806.873C458.514 806.873 457.997 806.873 458.169 807.974C458.341 809.074 458.686 811.36 453.088 818.387C452.141 812.714 448.523 798.746 435.175 795.868C416.228 791.719 391.683 798.661 386.343 823.043C381.004 847.424 395.903 864.61 378.937 876.546C378.937 876.546 399.176 881.203 410.458 883.15C423.083 885.335 436.06 884.464 448.265 880.61C457.825 877.759 466.036 871.648 471.419 863.376C476.803 855.104 479.007 845.214 477.633 835.487Z" fill="#8FB140"/>
<path d="M1491.63 1062.96C1490.04 1060.4 1487.49 1058.55 1484.52 1057.82C1481.56 1057.09 1478.42 1057.54 1475.79 1059.07C1363.83 1124.93 1171.43 1136.78 1169.45 1136.87C1168.42 1136.96 1167.41 1137.19 1166.44 1137.55C1095.73 1122.56 1023.42 1116.22 951.132 1118.67C971.549 1109.42 992.514 1101.39 1013.91 1094.62L1044.06 1085.14C1166.09 1047.3 1370.29 983.554 1446.59 812.461C1447.28 811.088 1447.68 809.592 1447.77 808.063C1447.85 806.534 1447.62 805.004 1447.09 803.565C1446.56 802.126 1445.74 800.807 1444.67 799.689C1443.61 798.571 1442.32 797.676 1440.9 797.059C1439.47 796.441 1437.94 796.113 1436.38 796.096C1434.82 796.078 1433.28 796.37 1431.84 796.955C1430.4 797.54 1429.09 798.405 1428 799.498C1426.91 800.592 1426.06 801.891 1425.49 803.318C1353.41 965.268 1155.41 1026.81 1037.08 1063.56C1026.32 1066.94 1016.07 1070.07 1006.68 1073.12C955.222 1088.44 906.831 1112.35 863.632 1143.81C865.699 1120.28 869.66 1090.39 877.153 1076.08C892.569 1047.13 926.415 1013.1 956.73 986.009C973.954 977.543 991.178 969.501 1007.71 961.628C1092.03 922.177 1171.35 884.843 1229.91 806.111C1260.4 764.714 1293.47 712.48 1277.28 675.569C1276.75 674.108 1275.92 672.769 1274.85 671.634C1273.78 670.499 1272.48 669.593 1271.03 668.97C1269.59 668.347 1268.03 668.022 1266.46 668.015C1264.88 668.007 1263.32 668.317 1261.87 668.925C1260.42 669.533 1259.11 670.427 1258.03 671.552C1256.94 672.676 1256.1 674.007 1255.56 675.463C1255.02 676.918 1254.79 678.467 1254.88 680.014C1254.97 681.561 1255.38 683.074 1256.09 684.458C1269.09 714.342 1225.52 773.349 1211.22 792.735C1164.11 856.483 1100.47 892.123 1031.66 925.14C1027.01 853.689 1079.37 764.29 1111.06 709.601C1120.4 695.006 1128.53 679.689 1135.35 663.802C1135.93 662.365 1136.2 660.826 1136.16 659.281C1136.11 657.735 1135.75 656.215 1135.08 654.813C1134.42 653.412 1133.47 652.159 1132.29 651.131C1131.12 650.104 1129.74 649.323 1128.25 648.837C1126.75 648.352 1125.18 648.172 1123.61 648.308C1122.04 648.444 1120.52 648.893 1119.14 649.629C1117.75 650.364 1116.54 651.37 1115.56 652.584C1114.59 653.799 1113.88 655.196 1113.47 656.69C1106.94 671.026 1099.43 684.913 1090.99 698.257C1056.98 756.502 1000.05 854.028 1009.09 933.775C1009.2 934.394 1009.4 934.993 1009.69 935.553L997.81 941.14L995.484 942.241C980.588 946.734 966.302 952.988 952.94 960.866C945.103 912.103 897.047 874.345 894.894 872.652C893.716 871.643 892.343 870.878 890.856 870.406C889.369 869.934 887.8 869.764 886.244 869.905C884.688 870.047 883.178 870.497 881.805 871.23C880.431 871.962 879.224 872.961 878.255 874.166C877.286 875.371 876.576 876.757 876.168 878.24C875.76 879.722 875.663 881.271 875.882 882.792C876.101 884.312 876.632 885.774 877.442 887.087C878.253 888.4 879.326 889.537 880.598 890.43C881.114 890.43 928.137 927.764 930.893 970.347C930.988 971.369 931.25 972.37 931.668 973.31C889.054 996.929 851.595 1028.57 821.432 1066.43L818.934 1069.57C819.324 1023.97 822.719 978.437 829.097 933.267C843.737 848.609 906.607 782.83 967.753 719.252C988.509 697.58 1008.06 676.923 1026.06 655.844C1049.96 626.322 1068.89 593.224 1082.12 557.81H1083.42C1178.24 510.317 1214.32 418.717 1215.61 414.823C1216.69 412.005 1216.58 408.884 1215.31 406.145C1214.04 403.406 1211.72 401.275 1208.85 400.22C1205.99 399.164 1202.81 399.272 1200.02 400.518C1197.24 401.764 1195.07 404.047 1194 406.865C1172.63 455.135 1137.52 496.297 1092.89 525.386C1100.09 501.959 1105.56 478.052 1109.25 453.85C1118.98 390.95 1104 329.742 1064.81 271.921C1063.11 269.417 1060.47 267.681 1057.46 267.093C1054.46 266.506 1051.34 267.116 1048.79 268.788C1046.25 270.461 1044.48 273.06 1043.88 276.013C1043.29 278.966 1043.91 282.031 1045.61 284.535C1081.52 337.446 1095.21 393.32 1086.43 450.464C1074.8 526.148 1046.12 595.567 1007.89 640.944C990.662 661.685 971.026 681.918 950.529 703.252L934.855 719.591C903.076 683.104 904.712 627.229 904.712 626.467C904.826 623.459 903.72 620.529 901.636 618.322C899.553 616.115 896.663 614.812 893.602 614.7C890.541 614.588 887.561 615.675 885.316 617.723C883.071 619.771 881.745 622.612 881.631 625.621C881.631 628.415 879.564 692.839 919.094 736.184C866.904 792.312 819.107 852.504 805.93 928.865C799.461 976.158 795.952 1023.8 795.423 1071.51L788.619 1066.52C786.38 1011.66 791.892 929.288 823.585 810.429C839.517 750.322 846.838 652.288 841.671 578.89C901.956 543.08 948.117 430.823 950.098 426.083C951.231 423.275 951.188 420.141 949.978 417.365C948.768 414.589 946.489 412.397 943.639 411.267C940.795 410.156 937.619 410.201 934.809 411.392C931.999 412.583 929.785 414.822 928.654 417.617C928.654 418.633 888.521 514.973 839.259 553.069C825.566 443.945 858.378 314.673 936.922 168.808C937.665 167.487 938.134 166.034 938.299 164.534C938.465 163.033 938.324 161.516 937.885 160.069C937.446 158.623 936.718 157.277 935.744 156.111C934.769 154.945 933.568 153.981 932.21 153.277C930.852 152.573 929.364 152.143 927.835 152.011C926.306 151.879 924.765 152.048 923.303 152.509C921.841 152.97 920.487 153.713 919.32 154.694C918.154 155.676 917.199 156.876 916.511 158.225C906.693 176.511 897.564 194.459 889.124 212.237C843.996 205.549 828.838 155.601 827.719 153.4C826.758 150.638 824.75 148.347 822.115 147.003C819.479 145.658 816.417 145.365 813.567 146.182C810.716 147 808.296 148.866 806.81 151.393C805.323 153.92 804.885 156.913 805.585 159.749C806.361 162.458 824.532 221.465 879.392 233.571C851.7 293.254 831.819 356.149 820.226 420.749C731.779 395.352 720.152 252.703 720.066 251.434C719.849 248.425 718.425 245.624 716.108 243.648C713.79 241.671 710.768 240.68 707.708 240.894C704.647 241.107 701.798 242.507 699.787 244.785C697.776 247.063 696.769 250.033 696.986 253.042C697.502 259.815 710.162 416.008 816.867 443.691C812.024 480.918 811.821 518.588 816.265 555.863C825.221 626.467 818.159 740.755 800.935 805.011C772.17 913.203 764.505 992.358 764.85 1048.4C761.638 1045.91 758.273 1043.62 754.773 1041.54C778.371 728.903 711.712 618.256 648.068 539.863C561.946 434.294 634.116 319.752 637.217 314.842C638.814 312.306 639.331 309.253 638.656 306.344C637.98 303.436 636.166 300.906 633.606 299.303C631.047 297.7 627.948 297.153 624.981 297.779C622.014 298.406 619.417 300.156 617.753 302.651C616.892 303.921 533.612 435.649 629.983 554.085C690.268 628.499 753.137 732.882 732.554 1028.59C727.817 1026.05 722.822 1023.26 717.483 1020.13C668.737 733.136 504.244 579.228 497.096 572.71C494.812 570.655 491.791 569.577 488.699 569.712C485.606 569.847 482.694 571.184 480.604 573.429C478.514 575.675 477.417 578.644 477.554 581.684C477.692 584.725 479.052 587.587 481.336 589.641C482.972 591.165 639.542 737.877 691.474 1004.46C675.17 992.648 657.884 982.198 639.801 973.226C395.214 780.121 441.72 540.455 442.409 537.915C442.425 535.3 441.522 532.759 439.851 530.723C438.181 528.687 435.846 527.281 433.242 526.743C430.638 526.205 427.924 526.568 425.562 527.771C423.199 528.974 421.331 530.943 420.275 533.344C419.673 536.222 405.549 604.964 428.888 699.95C445.595 767.677 484.695 858.853 575.295 946.474C549.975 938.008 524.225 929.542 498.991 921.923C452.078 908.789 406.198 892.322 361.712 872.652C321.924 834.048 340.182 725.009 350.689 686.405C351.328 683.545 350.816 680.552 349.261 678.054C347.706 675.555 345.229 673.745 342.347 673.001C339.466 672.257 336.403 672.638 333.8 674.063C331.198 675.489 329.257 677.848 328.383 680.648C327.005 685.728 300.394 786.471 323.474 852.927C316.154 848.44 308.92 843.784 301.858 838.874C222.367 782.746 166.904 707.485 149.508 632.393C149.247 630.872 148.674 629.419 147.823 628.123C146.971 626.826 145.86 625.715 144.557 624.855C143.253 623.996 141.785 623.406 140.242 623.124C138.699 622.841 137.114 622.871 135.583 623.211C134.052 623.551 132.608 624.195 131.339 625.102C130.069 626.01 129.002 627.162 128.201 628.489C127.401 629.816 126.884 631.29 126.682 632.82C126.481 634.35 126.599 635.905 127.03 637.388C145.546 717.898 204.54 798.238 288.423 857.498C349.655 900.335 421.998 922.77 491.757 943.595C529.737 955.194 569.267 967.13 605.524 982.284C609.916 984.146 614.136 986.009 618.442 987.956C662.02 1039.77 677.78 1127.05 681.57 1152.45C674.766 1149.06 667.79 1145.93 660.642 1142.88C643.418 1135.85 616.289 1126.54 582.013 1115.28C581.215 1113.32 579.872 1111.62 578.137 1110.37C532.234 1079.22 517.852 1016.06 517.852 1015.39C517.567 1013.9 516.983 1012.48 516.133 1011.22C515.283 1009.96 514.185 1008.88 512.904 1008.04C511.622 1007.2 510.183 1006.62 508.67 1006.34C507.158 1006.05 505.603 1006.07 504.098 1006.39C502.592 1006.7 501.166 1007.31 499.904 1008.18C498.642 1009.05 497.568 1010.15 496.747 1011.43C495.926 1012.71 495.374 1014.14 495.124 1015.63C494.873 1017.13 494.929 1018.65 495.288 1020.13C502.49 1048.87 515.655 1075.85 533.957 1099.37C365.846 1044.25 54.5152 938.516 62.6107 842.853C62.7782 841.346 62.637 839.823 62.1955 838.371C61.754 836.919 61.0211 835.569 60.0401 834.4C59.0592 833.232 57.8499 832.268 56.4839 831.566C55.1178 830.864 53.6225 830.439 52.0863 830.314C50.5502 830.19 49.0042 830.369 47.5397 830.842C46.0752 831.314 44.7218 832.07 43.5594 833.066C42.3971 834.061 41.4493 835.275 40.772 836.636C40.0948 837.997 39.7017 839.477 39.6161 840.99C32.2096 928.442 210.138 1009.54 381.262 1071.34C208.157 1086.24 158.895 1161.5 156.742 1164.98C155.783 1166.69 155.288 1168.62 155.303 1170.57C155.318 1172.53 155.843 1174.44 156.828 1176.14C157.813 1177.84 159.225 1179.26 160.929 1180.27C162.633 1181.28 164.572 1181.84 166.56 1181.91C168.507 1181.89 170.418 1181.39 172.118 1180.46C173.819 1179.53 175.254 1178.19 176.292 1176.57C176.895 1175.73 231.927 1093.95 432.16 1091.15C433.525 1091.13 434.872 1090.85 436.122 1090.31C475.221 1103.68 512.771 1115.7 546.358 1127.05C593.811 1142.54 631.361 1154.82 652.116 1163.45C663.053 1168.02 673.56 1173.02 683.551 1178.35C684.842 1243.62 683.55 1463.65 610.777 1641.34C610.777 1641.34 619.39 1667.25 774.409 1667.25C929.429 1667.25 938.041 1641.85 938.041 1641.85C938.041 1641.85 845.718 1539.59 861.22 1176.74C861.22 1176.74 861.22 1175.81 861.22 1174.29C874.913 1163.13 889.294 1152.81 904.281 1143.39C905.885 1143.93 907.587 1144.13 909.276 1143.98C910.999 1143.98 1089.01 1126.54 1234.82 1181.65C1236.14 1182.15 1237.54 1182.41 1238.95 1182.41C1241.29 1182.44 1243.58 1181.75 1245.5 1180.45C1247.43 1179.14 1248.9 1177.29 1249.72 1175.13C1250.81 1172.33 1250.73 1169.21 1249.48 1166.46C1248.24 1163.72 1245.94 1161.57 1243.09 1160.49C1237.4 1158.29 1231.55 1156.34 1225.86 1154.31C1293.38 1145.84 1407.92 1125.52 1487.33 1078.71C1488.68 1077.97 1489.87 1076.97 1490.82 1075.78C1491.78 1074.58 1492.47 1073.2 1492.88 1071.73C1493.28 1070.26 1493.37 1068.73 1493.16 1067.22C1492.95 1065.72 1492.43 1064.27 1491.63 1062.96Z" fill="#1E1E1C"/>
<path d="M1471.22 1001.16C1457.44 1006.83 1377.61 982.369 1430.4 899.573C1430.4 899.997 1535.9 939.701 1471.22 1001.16Z" fill="#FFD122"/>
<path d="M1350.39 1095.64C1335.49 1095.05 1273.74 1039.6 1357.11 986.94C1357.11 986.94 1435.57 1066.69 1350.39 1095.64Z" fill="#8FB140"/>
<path d="M1402.24 640.097C1417.14 641.875 1474.24 701.897 1386.91 747.951C1386.56 747.951 1315 662.278 1402.24 640.097Z" fill="#F1891A"/>
<path d="M1249.46 607.758C1234.56 606.488 1175.31 548.498 1260.91 499.481C1260.91 499.481 1335.84 582.615 1249.46 607.758Z" fill="#89AF8D"/>
<path d="M118.246 1239.98C129.528 1225.51 112.303 1214.58 110.408 1192.4C108.514 1170.22 127.633 1158.03 144.857 1156.68C160.187 1155.49 166.991 1173.61 166.991 1173.61C168.956 1172.17 171.227 1171.19 173.633 1170.74C176.038 1170.28 178.518 1170.37 180.885 1170.99C183.253 1171.6 185.448 1172.74 187.307 1174.31C189.166 1175.88 190.641 1177.84 191.622 1180.04C195.376 1187.99 196.111 1197 193.694 1205.43C191.277 1213.86 185.867 1221.16 178.445 1226.01C169.075 1232.49 158.212 1236.56 146.838 1237.87C136.676 1238.71 118.246 1239.98 118.246 1239.98Z" fill="#89AF8D"/>
<path d="M59.4242 876.8C45.5586 881.372 -31.2623 851.996 24.9754 775.211C25.1476 775.211 111.011 815.678 59.4242 876.8Z" fill="#249B4B"/>
<path d="M235.371 807.889C237.18 822.196 185.765 890.684 120.571 820.926C120.571 821.18 184.818 746.004 235.371 807.889Z" fill="#E40A5C"/>
<path d="M530.512 1070.07C517.249 1076.08 435.175 1049.08 482.714 966.622C482.714 966.622 574.951 1003.7 530.512 1070.07Z" fill="#249B4B"/>
<path d="M440.6 1068.89C455.155 1067.96 521.727 1122.31 447.232 1182.33C447.232 1182.33 374.803 1115.03 440.6 1068.89Z" fill="#8FB140"/>
<path d="M191.105 990.496C198.942 1002.6 182.493 1086.07 92.9257 1050.43C92.9257 1050.18 118.504 955.447 191.105 990.496Z" fill="#249B4B"/>
<path d="M219.181 966.199C204.884 969.077 132.283 930.812 197.65 861.223C188.435 855.636 286.872 914.304 219.181 966.199Z" fill="#89AF8D"/>
<path d="M386.343 1032.82C372.908 1027.15 335.531 954.939 429.404 934.622C429.663 934.368 473.671 1034.77 386.343 1032.82Z" fill="#249B4B"/>
<path d="M602.165 1158.2C587.697 1156.26 532.32 1096.32 617.581 1052.21C617.581 1052.21 687.34 1137.63 602.165 1158.2Z" fill="#89AF8D"/>
<path d="M314.604 1030.45C301.513 1036.89 221.334 1018.18 266.462 934.452C266.462 934.452 372.994 966.284 314.604 1030.45Z" fill="#FFD122"/>
<path d="M280.155 1105.12C294.968 1103.01 366.277 1145.93 294.365 1213.15C294.365 1213.15 202.042 1149.23 280.155 1105.12Z" fill="#F1891A"/>
<path d="M151.747 661.262C137.881 665.833 61.0605 636.457 117.298 559.672C117.47 559.672 203.334 600.139 151.747 661.262Z" fill="#F1891A"/>
<path d="M339.062 717.39C324.852 714.088 275.246 649.664 364.382 613.261C364.382 613.261 425.787 704.606 339.062 717.39Z" fill="#8FB140"/>
<path d="M270.854 779.952C256.558 782.83 183.957 744.565 249.323 674.976C249.754 674.976 344.488 732.544 270.854 779.952Z" fill="#FFD122"/>
<path d="M1045.95 525.979C1031.66 528.857 959.055 490.592 1024.42 421.003C1024.85 421.003 1119.59 478.57 1045.95 525.979Z" fill="#FFD122"/>
<path d="M431.557 583.546C416.572 583.546 351.722 531.905 431.557 474.676C431.902 474.676 514.924 550.275 431.557 583.546Z" fill="#249B4B"/>
<path d="M614.997 355.563C600.357 352.261 550.234 286.482 642.126 249.994C642.126 250.248 704.134 343.033 614.997 355.563Z" fill="#249B4B"/>
<path d="M716.019 258.714C701.722 263.116 624.643 231.37 685.015 154.162C685.015 154.162 786.294 203.179 716.019 258.714Z" fill="#8FB140"/>
<path d="M904.798 205.38C891.191 199.2 855.536 124.87 953.112 107.346C953.112 107.346 994.709 210.544 904.798 205.38Z" fill="#89AF8D"/>
<path d="M940.797 453.596C927.19 447.416 891.535 373.087 989.111 355.562C989.111 355.562 1030.71 458.76 940.797 453.596Z" fill="#8FB140"/>
<path d="M1074.29 407.034C1060.68 400.854 1025.02 326.525 1122.6 309.001C1122.6 309.001 1164.2 412.199 1074.29 407.034Z" fill="#F1891A"/>
<path d="M1207.78 425.575C1195.89 416.686 1177.29 336.515 1276.67 340.07C1276.33 340.07 1294.5 449.617 1207.78 425.575Z" fill="#8FB140"/>
<path d="M917.372 905.33C905.487 914.304 812.303 905.33 841.843 812.207C841.843 812.714 963.791 829.646 917.372 905.33Z" fill="#249B4B"/>
<path d="M808.341 1030.45C795.251 1023.34 765.28 946.558 863.976 936.315C863.976 936.315 897.65 1042.22 808.341 1030.45Z" fill="#F1891A"/>
<path d="M1078.25 1055.17C1066.36 1064.15 982.911 1060.59 1012.45 967.553C1012.45 967.553 1124.75 979.236 1078.25 1055.17Z" fill="#89AF8D"/>
<path d="M759.596 1097.5C747.711 1106.48 664.259 1102.92 693.799 1009.88C693.799 1009.88 806.102 1021.57 759.596 1097.5Z" fill="#89AF8D"/>
<path d="M1298.98 958.834C1285.2 964.506 1205.36 940.04 1258.16 857.245C1258.16 857.668 1363.66 897.372 1298.98 958.834Z" fill="#89AF8D"/>
<path d="M1157.65 1040.02C1166.26 1027.91 1246.96 1006.67 1247.22 1104.11C1247.22 1104.11 1136.81 1125.95 1157.65 1040.02Z" fill="#249B4B"/>
<path d="M1037.08 1116.21C1045.69 1104.11 1126.39 1082.86 1126.65 1180.3C1126.65 1180.3 1016.24 1202.14 1037.08 1116.21Z" fill="#F1891A"/>
<path d="M1050.69 874.515C1049.83 889.161 992.212 948.76 940.366 866.049C940.539 865.71 1023.3 790.196 1050.69 874.515Z" fill="#89AF8D"/>
<path d="M1216.73 793.92C1215.87 808.566 1158.26 868.165 1106.41 785.455C1106.41 785.116 1189.17 709.601 1216.73 793.92Z" fill="#E40A5C"/>
<path d="M807.997 98.2876C822.896 100.065 879.995 160.088 792.667 206.142C792.323 206.142 720.755 120.468 807.997 98.2876Z" fill="#249B4B"/>
<path d="M1066.36 690.892C1081.26 692.67 1138.36 752.692 1051.03 798.746C1050.69 798.746 979.121 713.072 1066.36 690.892Z" fill="#FFD122"/>
<path d="M913.583 1158.03C898.683 1156.76 839.431 1098.77 925.037 1049.76C925.037 1049.76 999.963 1132.89 913.583 1158.03Z" fill="#249B4B"/>
<path d="M879.134 108.277C864.235 107.007 804.983 49.0168 890.588 0C890.588 0 965.514 83.1339 879.134 108.277Z" fill="#249B4B"/>
<path d="M772.859 390.188C778.888 403.733 755.635 482.549 670.632 432.009C670.632 431.755 709.129 327.71 772.859 390.188Z" fill="#FFD122"/>
<path d="M447.835 445.469C437.844 456.559 355.167 468.665 366.277 371.817C388.755 369.954 467.729 364.028 447.835 445.469Z" fill="#8FB140"/>
<path d="M645.915 468.327C659.006 475.438 688.976 552.223 590.28 562.466C590.28 562.466 556.607 456.559 645.915 468.327Z" fill="#89AF8D"/>
<path d="M714.813 608.943C702.325 600.477 678.383 522.084 777.51 519.121C777.165 519.121 802.571 627.314 714.813 608.943Z" fill="#8FB140"/>
<path d="M835.384 575.08C822.896 566.614 798.954 488.221 898.08 485.258C897.736 485.258 923.142 593.451 835.384 575.08Z" fill="#8FB140"/>
<path d="M609.227 735.083C596.739 726.618 572.798 648.224 671.924 645.261C671.752 645.261 697.588 753.454 609.227 735.083Z" fill="#8FB140"/>
<path d="M830.13 742.533C817.729 750.999 734.621 741.602 770.534 650.764C770.534 650.764 881.717 669.981 830.13 742.533Z" fill="#8FB140"/>
<path d="M433.883 751.93C419.759 747.105 376.87 676.5 472.207 649.748C472.207 649.748 523.88 748.459 433.883 751.93Z" fill="#249B4B"/>
<path d="M669.771 944.78C655.991 950.368 576.329 925.394 629.638 843.191C629.638 843.276 734.879 883.573 669.771 944.78Z" fill="#249B4B"/>
<path d="M543.602 650.595C531.804 659.653 448.265 657.113 476.599 563.821C476.599 563.821 589.075 574.149 543.602 650.595Z" fill="#FFD122"/>
<path d="M994.365 778.851C985.753 790.703 904.109 809.582 906.865 712.226C906.865 711.972 1018.13 693.178 994.365 778.851Z" fill="#249B4B"/>
<path d="M1425.15 839.128C1411.54 832.863 1376.57 758.28 1474.15 741.517C1474.15 741.517 1514.97 845.054 1425.15 839.128Z" fill="#8FB140"/>
<path d="M1454.51 1087.6C1448.57 1074.14 1472.43 995.406 1557 1046.29C1557 1046.29 1517.99 1150.5 1454.51 1087.6Z" fill="#249B4B"/>
<path d="M744.439 1180.72C738.496 1167.18 762.352 1088.44 846.838 1139.32C846.838 1139.32 807.825 1243.54 744.439 1180.72Z" fill="#FFD122"/>
<path d="M1234.39 1167.26C1244.72 1156.59 1327.74 1147.45 1313.19 1243.45C1313.19 1243.79 1200.37 1249.21 1234.39 1167.26Z" fill="#89AF8D"/>
<path d="M1123.63 681.664C1110.11 675.399 1075.15 600.816 1172.72 584.054C1172.72 584.138 1213.55 687.59 1123.63 681.664Z" fill="#8FB140"/>
<path d="M589.591 403.733C589.438 401.16 588.69 398.655 587.402 396.41C586.115 394.164 584.323 392.237 582.164 390.776C580.004 389.314 577.533 388.356 574.94 387.976C572.347 387.595 569.699 387.801 567.2 388.579C573.659 380.706 572.884 376.812 572.798 376.388C572.681 376.043 572.464 375.738 572.173 375.512C571.882 375.287 571.53 375.15 571.161 375.119C570.472 375.119 569.955 375.119 570.128 376.219C570.3 377.32 570.645 379.605 565.047 386.632C564.099 380.96 560.482 366.991 547.133 364.113C528.186 359.965 503.642 366.907 498.302 391.288C492.962 415.67 508.12 432.855 490.896 444.792C490.896 444.792 511.134 449.448 522.416 451.395C535.041 453.581 548.018 452.709 560.224 448.855C569.784 446.005 577.994 439.893 583.378 431.621C588.762 423.349 590.965 413.46 589.591 403.733Z" fill="#8FB140"/>
<path d="M1321.63 666.172C1321.48 663.599 1320.73 661.094 1319.44 658.849C1318.15 656.603 1316.36 654.676 1314.2 653.215C1312.04 651.753 1309.57 650.796 1306.98 650.415C1304.38 650.034 1301.74 650.241 1299.24 651.018C1305.7 643.145 1304.92 639.251 1304.83 638.827C1304.72 638.482 1304.5 638.177 1304.21 637.951C1303.92 637.726 1303.57 637.589 1303.2 637.558C1302.51 637.558 1301.99 637.558 1302.16 638.658C1302.34 639.759 1302.68 642.044 1297.08 649.071C1296.14 643.399 1292.52 629.43 1279.17 626.552C1260.22 622.404 1235.68 629.346 1230.34 653.727C1225 678.109 1239.9 695.294 1222.93 707.231C1222.93 707.231 1243.17 711.887 1254.45 713.834C1267.08 716.02 1280.06 715.148 1292.26 711.294C1301.82 708.444 1310.03 702.332 1315.42 694.06C1320.8 685.788 1323 675.899 1321.63 666.172Z" fill="#8FB140"/>
<path d="M1111.4 945.543C1111.56 942.97 1112.31 940.465 1113.59 938.219C1114.88 935.974 1116.67 934.047 1118.83 932.585C1120.99 931.124 1123.46 930.166 1126.06 929.786C1128.65 929.405 1131.3 929.611 1133.8 930.389C1127.34 922.516 1128.11 918.621 1128.2 918.198C1128.32 917.852 1128.53 917.548 1128.82 917.322C1129.11 917.096 1129.47 916.959 1129.83 916.928C1130.52 916.928 1131.04 916.928 1130.95 918.029C1130.87 919.129 1130.35 921.415 1135.95 928.442C1136.36 923.339 1138.29 918.469 1141.51 914.446C1144.73 910.424 1149.09 907.428 1154.04 905.838C1172.9 901.69 1197.1 908.632 1202.78 933.013C1208.46 957.395 1193.31 974.58 1210.19 986.517C1210.19 986.517 1190.03 991.173 1178.75 993.12C1166.1 995.306 1153.09 994.435 1140.86 990.581C1131.3 987.748 1123.08 981.657 1117.68 973.401C1112.28 965.145 1110.06 955.267 1111.4 945.543Z" fill="#8FB140"/>
<path d="M1343.93 1165.65C1344.09 1163.08 1344.84 1160.57 1346.12 1158.33C1347.41 1156.08 1349.2 1154.16 1351.36 1152.7C1353.52 1151.23 1355.99 1150.28 1358.59 1149.9C1361.18 1149.51 1363.83 1149.72 1366.33 1150.5C1359.87 1142.63 1360.64 1138.73 1360.73 1138.31C1360.84 1137.96 1361.06 1137.66 1361.35 1137.43C1361.64 1137.21 1361.99 1137.07 1362.36 1137.04C1363.05 1137.04 1363.57 1137.46 1363.48 1138.14C1363.4 1138.82 1362.88 1141.53 1368.48 1148.55C1368.88 1143.45 1370.82 1138.58 1374.04 1134.56C1377.26 1130.53 1381.62 1127.54 1386.56 1125.95C1405.43 1121.8 1429.63 1128.74 1435.31 1153.12C1440.99 1177.5 1425.84 1194.69 1442.72 1206.63C1442.72 1206.63 1422.56 1211.28 1411.28 1213.23C1398.63 1215.42 1385.62 1214.54 1373.39 1210.69C1363.83 1207.86 1355.61 1201.77 1350.21 1193.51C1344.81 1185.26 1342.59 1175.38 1343.93 1165.65Z" fill="#8FB140"/>
<path d="M98.6958 962.474C98.5427 959.901 97.794 957.396 96.5068 955.151C95.2196 952.905 93.4279 950.978 91.2682 949.517C89.1085 948.055 86.6379 947.098 84.0446 946.717C81.4514 946.336 78.8039 946.543 76.3041 947.32C82.7633 939.447 81.9882 935.553 81.902 935.13C81.7855 934.784 81.5684 934.479 81.2775 934.254C80.9867 934.028 80.6349 933.891 80.2657 933.86C79.5767 933.86 79.06 933.86 79.2323 934.96C79.4045 936.061 79.749 938.347 74.1511 945.373C73.2037 939.701 69.5866 925.733 56.2377 922.854C37.2908 918.706 12.7461 925.648 7.40649 950.029C2.06693 974.411 17.2244 991.596 0 1003.53C0 1003.53 20.2387 1008.19 31.5207 1010.14C44.1459 1012.32 57.1228 1011.45 69.3282 1007.6C78.888 1004.75 87.0988 998.635 92.4826 990.362C97.8664 982.09 100.07 972.201 98.6958 962.474Z" fill="#8FB140"/>
<path d="M1089.1 242.883C1088.95 240.31 1088.2 237.805 1086.91 235.56C1085.62 233.315 1083.83 231.388 1081.67 229.926C1079.51 228.464 1077.04 227.507 1074.45 227.126C1071.85 226.746 1069.21 226.952 1066.71 227.729C1073.17 219.856 1072.39 215.962 1072.31 215.539C1072.19 215.193 1071.97 214.888 1071.68 214.663C1071.39 214.437 1071.04 214.3 1070.67 214.269C1069.98 214.269 1069.46 214.692 1069.64 215.369C1069.81 216.047 1070.15 218.756 1064.55 225.782C1063.61 220.11 1059.99 206.142 1046.64 203.263C1027.69 199.115 1003.58 206.057 997.81 230.439C992.04 254.82 1007.37 272.006 990.403 283.942C990.403 283.942 1010.64 288.598 1021.92 290.546C1034.55 292.731 1047.53 291.86 1059.73 288.006C1069.29 285.155 1077.5 279.044 1082.89 270.772C1088.27 262.5 1090.47 252.61 1089.1 242.883Z" fill="#8FB140"/>
<path d="M1031.05 548.921C1028.42 548.854 1025.82 549.38 1023.43 550.458C1021.04 551.536 1018.93 553.138 1017.27 555.14C1015.6 557.142 1014.43 559.492 1013.83 562.009C1013.24 564.526 1013.24 567.144 1013.83 569.662C1006.34 562.72 1002.37 563.143 1001.86 563.228C1001.52 563.337 1001.22 563.537 1000.99 563.807C1000.76 564.077 1000.61 564.404 1000.57 564.752C1000.52 564.889 1000.51 565.036 1000.54 565.178C1000.57 565.32 1000.63 565.452 1000.73 565.562C1000.82 565.673 1000.94 565.757 1001.08 565.808C1001.22 565.859 1001.37 565.874 1001.51 565.853C1001.51 565.853 1004.96 565.853 1011.68 571.694C1006.5 571.635 1001.43 573.104 997.114 575.911C992.799 578.719 989.441 582.735 987.475 587.44C981.877 605.726 986.958 630.277 1011.24 637.388C1035.53 644.5 1054.31 631.293 1064.98 648.817C1064.98 648.817 1071.19 629.346 1074.11 618.425C1077.21 606.195 1077.21 593.405 1074.11 581.176C1071.99 571.657 1066.49 563.19 1058.6 557.283C1050.72 551.376 1040.95 548.413 1031.05 548.921Z" fill="#F1891A"/>
<path d="M226.932 549.175C226.537 551.729 226.742 554.338 227.531 556.802C228.321 559.266 229.673 561.52 231.485 563.391C233.297 565.263 235.521 566.701 237.986 567.597C240.451 568.494 243.092 568.823 245.706 568.562C237.783 574.996 237.697 578.974 237.697 579.398C237.74 579.76 237.895 580.101 238.142 580.373C238.388 580.646 238.714 580.837 239.075 580.922C239.212 580.981 239.362 581.004 239.51 580.989C239.659 580.974 239.801 580.921 239.923 580.836C240.045 580.75 240.142 580.635 240.204 580.502C240.267 580.369 240.293 580.221 240.281 580.075C240.281 580.075 240.281 576.689 247.429 570.932C246.764 575.949 247.638 581.046 249.94 585.571C252.241 590.096 255.865 593.842 260.347 596.329C278.002 604.118 303.408 602.255 313.743 579.398C324.077 556.54 313.054 537.069 332.087 528.603C332.087 528.603 313.312 520.137 302.633 515.82C290.731 511.119 277.835 509.374 265.084 510.74C255.096 511.593 245.751 515.942 238.749 522.996C231.748 530.049 227.554 539.339 226.932 549.175Z" fill="#89AF8D"/>
<path d="M709.215 837.011C708.82 839.565 709.025 842.175 709.815 844.639C710.604 847.103 711.956 849.357 713.769 851.228C715.581 853.099 717.804 854.538 720.269 855.434C722.734 856.33 725.375 856.66 727.989 856.398C720.066 862.832 719.98 866.811 719.98 867.234C720.023 867.596 720.178 867.937 720.425 868.21C720.671 868.482 720.997 868.674 721.358 868.758C721.495 868.817 721.645 868.841 721.794 868.826C721.942 868.811 722.085 868.758 722.206 868.672C722.328 868.587 722.425 868.472 722.487 868.338C722.55 868.205 722.576 868.058 722.564 867.911C722.564 867.911 722.564 864.525 729.712 858.768C729.047 863.785 729.921 868.883 732.223 873.408C734.525 877.932 738.149 881.679 742.63 884.166C759.855 891.954 785.691 890.092 796.026 867.234C806.36 844.377 795.337 824.905 814.37 816.44C814.37 816.44 795.595 807.974 784.916 803.656C773.015 798.955 760.118 797.21 747.367 798.577C737.379 799.43 728.034 803.778 721.033 810.832C714.031 817.886 709.837 827.175 709.215 837.011Z" fill="#249B4B"/>
<path d="M511.134 794.682C510.74 797.237 510.945 799.846 511.734 802.31C512.523 804.774 513.876 807.028 515.688 808.899C517.5 810.77 519.724 812.209 522.189 813.105C524.653 814.001 527.294 814.331 529.909 814.069C521.986 820.503 521.899 824.482 521.899 824.905C521.942 825.267 522.098 825.608 522.344 825.881C522.591 826.153 522.916 826.345 523.277 826.429C523.414 826.488 523.564 826.512 523.713 826.497C523.862 826.482 524.004 826.429 524.126 826.343C524.247 826.258 524.344 826.143 524.407 826.009C524.47 825.876 524.496 825.729 524.483 825.582C524.483 825.582 524.483 822.196 531.631 816.439C530.966 821.456 531.841 826.554 534.142 831.079C536.444 835.603 540.068 839.35 544.55 841.837C562.205 849.625 587.611 847.763 597.945 824.905C608.28 802.048 597.256 782.576 616.289 774.111C616.289 774.111 597.515 765.645 586.835 761.327C574.934 756.626 562.037 754.881 549.286 756.248C539.298 757.101 529.954 761.449 522.952 768.503C515.95 775.557 511.757 784.846 511.134 794.682Z" fill="#249B4B"/>
<path d="M850.197 286.482C847.568 286.415 844.959 286.941 842.57 288.019C840.18 289.097 838.073 290.698 836.41 292.701C834.748 294.703 833.574 297.052 832.978 299.57C832.382 302.087 832.38 304.705 832.972 307.223C825.48 300.281 821.518 300.704 821.001 300.789C820.662 300.897 820.36 301.098 820.132 301.368C819.903 301.637 819.757 301.965 819.709 302.313C819.664 302.45 819.654 302.597 819.683 302.739C819.711 302.88 819.775 303.013 819.87 303.123C819.965 303.233 820.087 303.318 820.225 303.369C820.363 303.42 820.511 303.435 820.657 303.413C820.657 303.413 824.102 303.413 830.819 309.255C825.645 309.195 820.572 310.665 816.257 313.472C811.943 316.28 808.585 320.296 806.619 325.001C801.021 343.287 806.102 367.838 830.388 374.949C854.675 382.06 873.45 368.854 884.129 386.378C884.129 386.378 890.329 366.907 893.258 355.986C896.357 343.756 896.357 330.966 893.258 318.736C891.129 309.218 885.632 300.751 877.746 294.844C869.86 288.937 860.098 285.974 850.197 286.482Z" fill="#E40A5C"/>
<path d="M1332.48 760.565C1329.85 760.499 1327.24 761.025 1324.85 762.103C1322.46 763.181 1320.36 764.782 1318.69 766.784C1317.03 768.786 1315.86 771.136 1315.26 773.653C1314.66 776.17 1314.66 778.788 1315.26 781.306C1307.76 774.364 1303.8 774.788 1303.28 774.872C1302.95 774.981 1302.64 775.182 1302.42 775.451C1302.19 775.721 1302.04 776.048 1301.99 776.396C1301.95 776.534 1301.94 776.68 1301.97 776.822C1301.99 776.964 1302.06 777.096 1302.15 777.207C1302.25 777.317 1302.37 777.402 1302.51 777.452C1302.65 777.503 1302.79 777.518 1302.94 777.497C1302.94 777.497 1306.39 777.497 1313.1 783.338C1307.93 783.279 1302.86 784.748 1298.54 787.556C1294.23 790.363 1290.87 794.38 1288.9 799.085C1283.3 817.371 1288.39 841.921 1312.67 849.033C1336.96 856.144 1355.73 842.937 1366.41 860.461C1366.41 860.461 1372.61 840.99 1375.54 830.069C1378.64 817.84 1378.64 805.049 1375.54 792.82C1373.41 783.301 1367.92 774.834 1360.03 768.928C1352.14 763.021 1342.38 760.057 1332.48 760.565Z" fill="#249B4B"/>
<path d="M959.399 638.15C960.396 635.758 960.823 633.174 960.647 630.595C960.471 628.016 959.696 625.511 958.383 623.272C957.069 621.033 955.251 619.119 953.069 617.677C950.887 616.235 948.397 615.304 945.792 614.954C955.093 610.552 956.127 606.488 956.213 606.488C956.234 606.135 956.157 605.783 955.99 605.47C955.823 605.157 955.573 604.894 955.265 604.71C955.151 604.598 955.006 604.519 954.847 604.484C954.689 604.449 954.524 604.459 954.371 604.512C954.218 604.565 954.083 604.659 953.983 604.784C953.882 604.909 953.819 605.06 953.801 605.218C953.801 605.218 952.854 608.435 945.189 612.414C946.739 606.912 949.581 592.774 938.73 584.562C923.4 572.879 898.253 568.816 882.837 588.625C867.421 608.435 873.277 630.192 852.78 633.833C852.78 633.833 869.057 646.531 878.617 653.05C889.089 660.34 901.207 665.018 913.927 666.68C923.712 667.959 933.642 665.797 941.962 660.577C950.283 655.356 956.459 647.413 959.399 638.15Z" fill="#249B4B"/>
<path d="M520.694 1275.71C520.541 1273.13 519.792 1270.63 518.505 1268.38C517.218 1266.14 515.426 1264.21 513.266 1262.75C511.106 1261.29 508.636 1260.33 506.043 1259.95C503.449 1259.57 500.802 1259.78 498.302 1260.55C504.761 1252.68 503.986 1248.79 503.9 1248.36C503.783 1248.02 503.566 1247.71 503.275 1247.49C502.985 1247.26 502.633 1247.12 502.264 1247.09C501.575 1247.09 501.058 1247.52 501.23 1248.19C501.402 1248.87 501.747 1251.58 496.149 1258.61C495.202 1252.94 491.585 1238.97 478.236 1236.09C459.289 1231.94 434.744 1238.88 429.404 1263.26C424.065 1287.64 438.964 1304.83 421.998 1316.77C421.998 1316.77 442.237 1321.42 453.519 1323.37C466.144 1325.56 479.121 1324.68 491.326 1320.83C500.886 1317.98 509.097 1311.87 514.48 1303.6C519.864 1295.32 522.068 1285.43 520.694 1275.71Z" fill="#E40A5C"/>
<path d="M964.567 1356.39C964.567 1354.27 971.112 1352.83 974.385 1352.15C976.664 1347.81 980.411 1344.37 984.983 1342.44C989.555 1340.51 994.669 1340.2 999.446 1341.57C1012.97 1344.87 1016.67 1361.21 1024.77 1375.43C1032.86 1389.66 1073.08 1400.83 1073.08 1400.83C1073.08 1400.83 1078.85 1421.23 1078.16 1420.05C1077.47 1418.86 1062.4 1410.65 1051.38 1404.39C1048.28 1412.82 1042.28 1419.93 1034.42 1424.47C1026.55 1429.02 1017.32 1430.72 1008.32 1429.28C971.112 1423.18 972.145 1390.16 973.179 1362.23C969.303 1360.96 964.567 1359.01 964.567 1356.39Z" fill="#249B4B"/>
<path d="M988.164 1359.69C989.781 1359.69 991.092 1358.4 991.092 1356.81C991.092 1355.22 989.781 1353.93 988.164 1353.93C986.547 1353.93 985.236 1355.22 985.236 1356.81C985.236 1358.4 986.547 1359.69 988.164 1359.69Z" fill="white"/>
<path d="M687.943 1870.6L362.401 1869.16V1539.16L368.775 1504.71L415.28 1427.41L610.088 1348.34L728.076 1369.42L660.211 1450.27L688.804 1478.38L676.833 1624.84L687.943 1870.6Z" fill="#1E1E1C"/>
<path d="M588.644 1274.52L905.918 1400.66L1158.77 1620.69L697.502 1481.09L660.211 1450.27L576.415 1387.88L567.2 1341.32L588.644 1274.52Z" fill="#1E1E1C"/>
<path d="M398.745 1423.52L591.658 1273.59L575.726 1351.05L584.769 1374.93L419.07 1437.74L359.129 1544.5L334.842 1536.37L398.745 1423.52L576.07 1350.63L398.745 1423.52Z" fill="#1E1E1C"/>
<path d="M1008.92 1428.09L987.303 1457.81L920.472 1469.24L985.839 1523.5L1027.95 1533.49V1462.04L1008.92 1428.09Z" fill="#1E1E1C"/>
<path d="M1007.02 1430.21L926.587 1442.31L908.846 1473.47L987.303 1457.81L1007.02 1430.21Z" fill="white"/>
<path d="M1029.85 1461.02L1010.81 1427.16C1010.66 1426.84 1010.41 1426.57 1010.11 1426.37C1009.81 1426.18 1009.45 1426.07 1009.09 1426.06C1008.73 1426.04 1008.37 1426.11 1008.04 1426.25C1007.71 1426.4 1007.42 1426.63 1007.2 1426.91L986.011 1456.11L920.042 1467.37C919.647 1467.46 919.283 1467.65 918.982 1467.92C918.681 1468.18 918.453 1468.52 918.319 1468.9C918.242 1469.29 918.265 1469.7 918.385 1470.08C918.505 1470.47 918.719 1470.81 919.008 1471.1L984.461 1525.36H985.322L1027.44 1535.35H1027.95C1028.46 1535.35 1028.95 1535.17 1029.33 1534.85C1029.59 1534.66 1029.79 1534.42 1029.93 1534.14C1030.06 1533.86 1030.12 1533.55 1030.11 1533.24V1462.04C1030.1 1461.69 1030.01 1461.34 1029.85 1461.02ZM925.381 1470.51L985.15 1460.26V1520.11L925.381 1470.51ZM1025.8 1530.78L989.456 1522.32V1458.65L1008.75 1432.24L1025.97 1462.8L1025.8 1530.78Z" fill="white"/>
<path d="M639.973 1266.4L658.144 1267.75L657.369 1336.32L639.973 1332.09" fill="#1E1E1C"/>
<path d="M889.899 1347.75L908.157 1349.19L907.382 1417.76L889.899 1413.53" fill="#1E1E1C"/>
<path d="M688.804 1478.38L1135.52 1609.17L1132.59 1870.43L687.943 1870.6L645.915 1478.38" fill="#1E1E1C"/>
<path d="M428.371 1556.94L429.404 1606.97L449.815 1601.39L448.782 1550L428.371 1556.94Z" fill="white" stroke="white" stroke-width="0.5" stroke-linecap="round" stroke-linejoin="round"/>
<path d="M448.782 1550L467.729 1541.53L470.14 1598.76L449.815 1601.39" stroke="white" stroke-width="0.5" stroke-linecap="round" stroke-linejoin="round"/>
<path d="M429.146 1556.94L410.802 1561L410.371 1613.24L427.94 1606.97" stroke="white" stroke-width="0.5" stroke-linecap="round" stroke-linejoin="round"/>
<path d="M400.295 1692.39L401.329 1742.43L421.74 1736.92L420.706 1685.45L400.295 1692.39Z" fill="white" stroke="white" stroke-width="0.5" stroke-linecap="round" stroke-linejoin="round"/>
<path d="M420.706 1685.45L439.653 1677.07L442.064 1734.21L421.74 1736.92" stroke="white" stroke-width="0.5" stroke-linecap="round" stroke-linejoin="round"/>
<path d="M400.984 1692.39L384.966 1696.54L384.535 1748.69L399.865 1742.43" stroke="white" stroke-width="0.5" stroke-linecap="round" stroke-linejoin="round"/>
<path d="M485.9 1667.84L487.02 1723.8L509.842 1717.62L508.809 1660.05L485.9 1667.84Z" fill="white" stroke="white" stroke-width="0.5" stroke-linecap="round" stroke-linejoin="round"/>
<path d="M508.809 1660.05L529.995 1650.66L532.665 1714.66L509.842 1717.62" stroke="white" stroke-width="0.5" stroke-linecap="round" stroke-linejoin="round"/>
<path d="M486.762 1667.84L471.087 1672.5L470.571 1730.91L485.47 1723.8" stroke="white" stroke-width="0.5" stroke-linecap="round" stroke-linejoin="round"/>
<path d="M589.677 1638.72L591.142 1708.48L619.562 1700.77L618.184 1628.98L589.677 1638.72Z" fill="white" stroke="white" stroke-width="0.5" stroke-linecap="round" stroke-linejoin="round"/>
<path d="M618.184 1628.98L644.709 1617.22L648.068 1697.05L619.562 1700.77" stroke="white" stroke-width="0.5" stroke-linecap="round" stroke-linejoin="round"/>
<path d="M589.85 1638.64L571.506 1644.48L574.434 1713.81L589.075 1708.48" stroke="white" stroke-width="0.5" stroke-linecap="round" stroke-linejoin="round"/>
<path d="M551.009 1514.02L552.128 1569.98L574.951 1563.8L573.917 1506.23L551.009 1514.02Z" fill="#FFD122" stroke="white" stroke-width="0.5" stroke-linecap="round" stroke-linejoin="round"/>
<path d="M573.917 1506.23L595.103 1496.83L597.773 1560.75L574.951 1563.8" stroke="white" stroke-width="0.5" stroke-linecap="round" stroke-linejoin="round"/>
<path d="M551.87 1513.93L531.373 1518.59L530.856 1577L550.578 1569.98" stroke="white" stroke-width="0.5" stroke-linecap="round" stroke-linejoin="round"/>
<path d="M626.882 1266.4V1312.11L639.973 1332.09V1266.4H626.882Z" fill="#1E1E1C"/>
<path d="M658.317 1265.63L640.145 1264.28H626.882C626.311 1264.28 625.764 1264.5 625.36 1264.9C624.956 1265.3 624.729 1265.83 624.729 1266.4V1312.2C624.604 1312.58 624.604 1312.99 624.729 1313.38L637.82 1333.36C638.09 1333.75 638.483 1334.05 638.939 1334.21L656.164 1338.52H656.68C657.126 1338.68 657.613 1338.68 658.058 1338.52C658.299 1338.33 658.493 1338.08 658.626 1337.8C658.76 1337.53 658.831 1337.22 658.834 1336.92L659.609 1268.34C659.803 1267.81 659.775 1267.23 659.533 1266.73C659.291 1266.22 658.853 1265.82 658.317 1265.63ZM637.82 1324.89L629.208 1311.43V1268.51H637.82V1324.89ZM655.044 1333.36L641.867 1330.14V1268.43L655.733 1269.44L655.044 1333.36Z" fill="white"/>
<path d="M584.769 1374.93L686.995 1476.6L1158.77 1620.69" fill="#1E1E1C"/>
<path d="M1159.37 1618.66L688.115 1474.74L586.577 1373.74L577.965 1351.31C578.092 1350.89 578.092 1350.45 577.965 1350.04L593.639 1273.85C593.714 1273.42 593.657 1272.99 593.476 1272.6C593.295 1272.21 592.998 1271.89 592.626 1271.67C592.253 1271.45 591.821 1271.34 591.387 1271.37C590.953 1271.4 590.537 1271.55 590.194 1271.81L397.367 1422.25C397.148 1422.44 396.972 1422.67 396.85 1422.93L332.948 1535.69C332.803 1535.98 332.728 1536.3 332.728 1536.62C332.728 1536.95 332.803 1537.26 332.948 1537.55C333.055 1537.84 333.228 1538.09 333.452 1538.3C333.676 1538.5 333.946 1538.65 334.24 1538.74L358.612 1547.21H359.387C359.762 1547.2 360.128 1547.1 360.447 1546.9C360.765 1546.71 361.024 1546.43 361.196 1546.1L420.62 1439.18L584.252 1377.13L685.531 1477.87C685.796 1478.12 686.123 1478.29 686.479 1478.38V1870.94C686.479 1871.5 686.706 1872.04 687.109 1872.43C687.513 1872.83 688.061 1873.05 688.632 1873.05C689.203 1873.05 689.75 1872.83 690.154 1872.43C690.558 1872.04 690.785 1871.5 690.785 1870.94V1479.99L1158.17 1622.72H1158.77C1159.29 1622.72 1159.79 1622.54 1160.18 1622.2C1160.57 1621.87 1160.83 1621.41 1160.9 1620.9C1160.98 1620.4 1160.86 1619.89 1160.58 1619.46C1160.3 1619.03 1159.87 1618.71 1159.37 1618.57V1618.66ZM588.386 1278.84L573.917 1349.19L412.352 1415.56L588.386 1278.84ZM418.295 1435.8C417.832 1435.98 417.441 1436.31 417.175 1436.73L358.182 1541.96L337.943 1535.18L400.295 1425.13L574.348 1353.59L582.013 1373.74L418.295 1435.8Z" fill="white"/>
<path d="M1413.87 1849.6H1361.24C1361.17 1847.2 1361.46 1844.81 1362.11 1842.49C1354.27 1843.11 1346.6 1844.97 1339.37 1847.99C1340.32 1845.79 1340.23 1843.08 1341.01 1840.97C1334.28 1841.79 1327.75 1843.76 1321.71 1846.81C1320.69 1844.48 1320.1 1841.98 1319.99 1839.44C1316.9 1840.37 1313.99 1841.8 1311.38 1843.68C1309.35 1841.03 1308.04 1837.91 1307.59 1834.62C1304.78 1837.1 1302.13 1839.76 1299.67 1842.58C1298.47 1840.25 1296.49 1838.39 1294.07 1837.33C1292.98 1840.48 1292.26 1843.75 1291.92 1847.06C1283.41 1845.27 1274.77 1844.17 1266.08 1843.76C1267.27 1845.94 1268.81 1847.91 1270.64 1849.6H1016.76C1016.68 1847.2 1016.97 1844.81 1017.62 1842.49C1009.79 1843.11 1002.11 1844.97 994.881 1847.99C995.829 1845.79 995.743 1843.08 996.518 1840.97C989.789 1841.79 983.258 1843.76 977.227 1846.81C976.2 1844.48 975.616 1841.98 975.504 1839.44C972.414 1840.37 969.503 1841.8 966.892 1843.68C964.857 1841.03 963.552 1837.91 963.102 1834.62C960.29 1837.1 957.643 1839.76 955.179 1842.58C953.983 1840.25 952.006 1838.39 949.581 1837.33C948.496 1840.48 947.774 1843.75 947.428 1847.06C938.922 1845.27 930.281 1844.17 921.592 1843.76C922.783 1845.94 924.325 1847.91 926.156 1849.6H577.534C577.455 1847.2 577.745 1844.81 578.396 1842.49C570.564 1843.11 562.886 1844.97 555.659 1847.99C556.607 1845.79 556.52 1843.08 557.296 1840.97C550.566 1841.79 544.036 1843.76 538.004 1846.81C536.978 1844.48 536.394 1841.98 536.282 1839.44C533.191 1840.37 530.281 1841.8 527.67 1843.68C525.635 1841.03 524.33 1837.91 523.88 1834.62C521.067 1837.1 518.421 1839.76 515.957 1842.58C514.761 1840.25 512.784 1838.39 510.359 1837.33C509.274 1840.48 508.552 1843.75 508.206 1847.06C499.699 1845.27 491.059 1844.17 482.369 1843.76C483.561 1845.94 485.102 1847.91 486.934 1849.6H241.658C241.579 1847.2 241.869 1844.81 242.52 1842.49C234.688 1843.11 227.01 1844.97 219.783 1847.99C220.731 1845.79 220.645 1843.08 221.42 1840.97C214.69 1841.79 208.16 1843.76 202.128 1846.81C201.102 1844.48 200.518 1841.98 200.406 1839.44C197.315 1840.37 194.405 1841.8 191.794 1843.68C189.759 1841.03 188.454 1837.91 188.004 1834.62C185.192 1837.1 182.545 1839.76 180.081 1842.58C178.885 1840.25 176.908 1838.39 174.483 1837.33C173.398 1840.48 172.676 1843.75 172.33 1847.06C163.824 1845.27 155.183 1844.17 146.494 1843.76C147.685 1845.94 149.226 1847.91 151.058 1849.6H147.441C144.015 1849.6 140.729 1850.94 138.306 1853.32C135.884 1855.7 134.523 1858.93 134.523 1862.3C134.523 1865.67 135.884 1868.9 138.306 1871.28C140.729 1873.66 144.015 1875 147.441 1875H1413.43C1416.86 1875 1420.15 1873.66 1422.57 1871.28C1424.99 1868.9 1426.35 1865.67 1426.35 1862.3C1426.35 1858.93 1424.99 1855.7 1422.57 1853.32C1420.15 1850.94 1416.86 1849.6 1413.43 1849.6H1413.87Z" fill="#249B4B"/>
<path d="M242.52 1842.41C242.52 1842.41 242.858 1842.07 242.52 1842.41V1842.41Z" fill="#0D994B"/>
<path d="M578.396 1842.41C578.396 1842.41 578.734 1842.07 578.396 1842.41V1842.41Z" fill="#0D994B"/>
<path d="M1362.11 1842.41C1362.11 1842.41 1362.44 1842.07 1362.11 1842.41V1842.41Z" fill="#0D994B"/>
<path d="M1017.62 1842.41C1017.62 1842.41 1017.96 1842.07 1017.62 1842.41V1842.41Z" fill="#0D994B"/>
<path d="M819.279 1374.16L736.602 1389.57L718.774 1420.73L797.232 1404.98L819.279 1374.16Z" fill="white"/>
<path d="M839.776 1408.28L820.743 1374.42C820.594 1374.09 820.352 1373.81 820.047 1373.62C819.741 1373.42 819.385 1373.32 819.02 1373.32C818.656 1373.27 818.285 1373.33 817.951 1373.48C817.616 1373.63 817.331 1373.86 817.126 1374.16L795.94 1403.12L729.97 1414.46C729.565 1414.53 729.188 1414.71 728.883 1414.98C728.578 1415.25 728.357 1415.6 728.248 1415.99C728.161 1416.37 728.18 1416.76 728.301 1417.14C728.422 1417.51 728.641 1417.84 728.937 1418.1L794.39 1472.45C794.648 1472.64 794.94 1472.79 795.251 1472.88L837.364 1482.87H837.881C838.387 1482.86 838.875 1482.68 839.259 1482.36C839.509 1482.17 839.71 1481.92 839.845 1481.65C839.979 1481.37 840.044 1481.06 840.034 1480.75V1409.3C840.029 1408.94 839.941 1408.6 839.776 1408.28ZM735.31 1417.76L795.078 1407.52V1467.37L735.31 1417.76ZM835.384 1478.04L799.04 1469.57V1405.32L818.331 1378.91L835.556 1409.47L835.384 1478.04Z" fill="white"/>
<path d="M876.808 1347.75V1393.47L889.899 1413.53V1347.75H876.808Z" fill="#1E1E1C"/>
<path d="M908.329 1347.07L890.071 1345.64H876.808C876.237 1345.64 875.69 1345.86 875.286 1346.25C874.882 1346.65 874.655 1347.19 874.655 1347.75V1393.47C874.569 1393.86 874.569 1394.26 874.655 1394.65L887.746 1414.63C888.016 1415.02 888.409 1415.32 888.865 1415.48L906.09 1419.71H906.607C907.068 1419.69 907.514 1419.54 907.898 1419.29C908.161 1419.09 908.375 1418.83 908.524 1418.54C908.673 1418.24 908.753 1417.92 908.76 1417.59L909.535 1349.11C909.561 1348.69 909.46 1348.27 909.245 1347.91C909.031 1347.55 908.712 1347.26 908.329 1347.07ZM887.746 1406.33L879.134 1392.96V1349.95H887.746V1406.33ZM904.97 1414.8L891.794 1411.58V1349.78L905.659 1350.88L904.97 1414.8Z" fill="white"/>
<path d="M943.553 1602.15L910.827 1592.33L910.051 1667.17L943.467 1674.28L943.553 1602.15Z" fill="white"/>
<path d="M862.943 1576.75L830.302 1566.93L829.527 1648.54L839.001 1651.67L860.704 1656.67L862.943 1576.75Z" fill="#89AF8D"/>
<path d="M773.806 1551.35L740.822 1541.53L740.047 1628.9L773.72 1636.69L773.806 1551.35Z" fill="white"/>
<path d="M1103.83 1652.1L1071.62 1641.01L1071.19 1705.09L1104.51 1712.8L1103.83 1652.1Z" fill="white"/>
<path d="M1023.3 1627.46L990.662 1617.64V1686.55L1024.08 1694.26L1023.3 1627.46Z" fill="white"/>
<path d="M910.74 1698.66L910.137 1771.89L943.467 1778.15L943.553 1706.7L910.74 1698.66Z" fill="white"/>
<path d="M830.302 1678.85L829.527 1756.73L862.943 1763V1686.89L830.302 1678.85Z" fill="white"/>
<path d="M773.806 1664.96L740.822 1656.84L740.047 1739.89L773.72 1746.24L773.806 1664.96Z" fill="white"/>
<path d="M1071.53 1738.11L1071.19 1802.19L1104.6 1808.46L1103.91 1746.07L1071.53 1738.11Z" fill="#8FB140"/>
<path d="M990.662 1718.3V1787.04L1023.99 1793.31L1023.39 1726.34L990.662 1718.3Z" fill="white"/>
</g>
<defs>
<clipPath id="clip0_5_2">
<rect width="1557" height="1875" fill="white"/>
</clipPath>
</defs>
</svg>
