<svg width="50" height="50" viewBox="0 0 50 50" fill="none" xmlns="http://www.w3.org/2000/svg">
<path d="M45.8332 17.9333V34.8958C45.8333 36.6253 45.1716 38.2892 43.9839 39.5463C42.7961 40.8034 41.1723 41.5583 39.4457 41.6563L39.0623 41.6667H10.9373C9.20788 41.6668 7.54394 41.0051 6.28686 39.8174C5.02977 38.6296 4.27483 37.0058 4.17692 35.2792L4.1665 34.8958V17.9333L24.2748 28.4667C24.4985 28.5838 24.7473 28.6451 24.9998 28.6451C25.2524 28.6451 25.5011 28.5838 25.7248 28.4667L45.8332 17.9333ZM10.9373 8.33334H39.0623C40.7406 8.33313 42.3592 8.95624 43.6041 10.0818C44.849 11.2074 45.6315 12.7552 45.7998 14.425L24.9998 25.3208L4.19984 14.425C4.36134 12.8215 5.08952 11.3282 6.25348 10.2135C7.41744 9.09877 8.94084 8.43581 10.5498 8.34375L10.9373 8.33334H39.0623H10.9373Z" fill="#51AE6F"/>
</svg>
