<svg width="33" height="29" viewBox="0 0 33 29" fill="none" xmlns="http://www.w3.org/2000/svg">
<path fill-rule="evenodd" clip-rule="evenodd" d="M0 2.75002C0 2.12677 0.247588 1.52903 0.688299 1.08832C1.12901 0.647613 1.72674 0.400024 2.35 0.400024H30.55C31.1733 0.400024 31.771 0.647613 32.2117 1.08832C32.6524 1.52903 32.9 2.12677 32.9 2.75002C32.9 3.37328 32.6524 3.97101 32.2117 4.41172C31.771 4.85244 31.1733 5.10002 30.55 5.10002H2.35C1.72674 5.10002 1.12901 4.85244 0.688299 4.41172C0.247588 3.97101 0 3.37328 0 2.75002Z" fill="white"/>
<path fill-rule="evenodd" clip-rule="evenodd" d="M0 14.5C0 13.8768 0.247588 13.279 0.688299 12.8383C1.12901 12.3976 1.72674 12.15 2.35 12.15H30.55C31.1733 12.15 31.771 12.3976 32.2117 12.8383C32.6524 13.279 32.9 13.8768 32.9 14.5C32.9 15.1233 32.6524 15.721 32.2117 16.1617C31.771 16.6024 31.1733 16.85 30.55 16.85H2.35C1.72674 16.85 1.12901 16.6024 0.688299 16.1617C0.247588 15.721 0 15.1233 0 14.5Z" fill="white"/>
<path fill-rule="evenodd" clip-rule="evenodd" d="M14.1 26.25C14.1 25.6268 14.3476 25.029 14.7883 24.5883C15.229 24.1476 15.8267 23.9 16.45 23.9H30.55C31.1732 23.9 31.771 24.1476 32.2117 24.5883C32.6524 25.029 32.9 25.6268 32.9 26.25C32.9 26.8733 32.6524 27.471 32.2117 27.9117C31.771 28.3524 31.1732 28.6 30.55 28.6H16.45C15.8267 28.6 15.229 28.3524 14.7883 27.9117C14.3476 27.471 14.1 26.8733 14.1 26.25Z" fill="white"/>
</svg>
